<svg viewBox="0 0 448 448" version="1.1" xmlns="http://www.w3.org/2000/svg" xmlns:xlink="http://www.w3.org/1999/xlink">
    <g stroke="none" stroke-width="1" fill="none" fill-rule="evenodd">
        <g transform="translate(-1892, -5153)" fill="#525961" fill-rule="nonzero">
            <g transform="translate(1892, 5153)">
                <path d="M135,51.5 C135,32.4171875 147.715625,17 163.454545,17 L419.545455,17 C435.284375,17 448,32.4171875 448,51.5 C448,70.5828125 435.284375,86 419.545455,86 L163.454545,86 C147.715625,86 135,70.5828125 135,51.5 Z" opacity="0.4"></path>
                <path d="M135,224 C135,204.917188 147.715625,189.5 163.454545,189.5 L419.545455,189.5 C435.284375,189.5 448,204.917188 448,224 C448,243.082812 435.284375,258.5 419.545455,258.5 L163.454545,258.5 C147.715625,258.5 135,243.082812 135,224 Z" opacity="0.4"></path>
                <path d="M163.454545,362 L419.545455,362 C435.284375,362 448,377.417188 448,396.5 C448,415.582812 435.284375,431 419.545455,431 L163.454545,431 C147.715625,431 135,415.582812 135,396.5 C135,377.417188 147.715625,362 163.454545,362 Z" opacity="0.4"></path>
                <path d="M0,25.8461538 C0,11.5230769 11.4802083,0 25.75,0 L77.25,0 C91.5197917,0 103,11.5230769 103,25.8461538 L103,77.5384615 C103,91.8615385 91.5197917,103.384615 77.25,103.384615 L25.75,103.384615 C11.4802083,103.384615 0,91.8615385 0,77.5384615 L0,25.8461538 Z"></path>
                <path d="M0,198.153846 C0,183.830769 11.4802083,172.307692 25.75,172.307692 L77.25,172.307692 C91.5197917,172.307692 103,183.830769 103,198.153846 L103,249.846154 C103,264.169231 91.5197917,275.692308 77.25,275.692308 L25.75,275.692308 C11.4802083,275.692308 0,264.169231 0,249.846154 L0,198.153846 Z"></path>
                <path d="M25.75,344.615385 L77.25,344.615385 C91.5197917,344.615385 103,356.138462 103,370.461538 L103,422.153846 C103,436.476923 91.5197917,448 77.25,448 L25.75,448 C11.4802083,448 0,436.476923 0,422.153846 L0,370.461538 C0,356.138462 11.4802083,344.615385 25.75,344.615385 Z"></path>
            </g>
        </g>
    </g>
</svg>
