<?xml version="1.0" encoding="utf-8"?>
<!-- Generator: Adobe Illustrator 28.2.0, SVG Export Plug-In . SVG Version: 6.00 Build 0)  -->
<svg version="1.2" baseProfile="tiny" id="Layer_1" xmlns="http://www.w3.org/2000/svg" xmlns:xlink="http://www.w3.org/1999/xlink"
	 x="0px" y="0px" viewBox="0 0 507.58 550.84" overflow="visible" xml:space="preserve">
<g>
	<path fill="#010101" d="M182.96,304.7c0.1,7-4.73,11.94-11.71,11.91c-6.51,0-11.5-4.73-11.65-11.01
		c-0.16-6.25,5.25-11.91,11.4-12.02c6.92-0.1,11.89,4.5,11.99,11.08h-0.03V304.7z"/>
	<path fill="#010101" d="M198.12,214.21c-0.08,6.92-4.88,11.27-12.35,11.14c-6.12-0.1-10.98-4.94-11.03-10.98
		c-0.05-6.59,5.35-11.91,11.99-11.78C193.55,202.72,198.2,207.44,198.12,214.21z"/>
	<path fill="#010101" d="M436.95,252.48c-6.54-0.05-11.58-5.12-11.63-11.68c-0.05-5.99,5.74-11.45,12.04-11.34
		c6.69,0.1,11.24,4.7,11.14,11.32C448.4,247.49,443.44,252.53,436.95,252.48z"/>
	<path fill="#010101" d="M323.24,202.53c6.51,0.08,11.24,5.14,11.16,11.94c-0.05,6.28-5.09,11.27-11.34,11.32
		c-6.59,0.05-11.65-5.09-11.52-11.6C311.69,207.73,316.96,202.46,323.24,202.53z"/>
	<path fill="#010101" d="M307.11,75.92c0-6.43,4.5-11.03,10.75-11.08c6.77-0.05,12.45,5.25,12.4,11.52
		c-0.05,6.25-5.58,11.63-11.89,11.52C312.02,87.78,307.09,82.56,307.11,75.92z"/>
	<path fill="#010101" d="M424.01,374.03c6.41,0.08,11.24,4.86,11.27,11.21c0,6.23-5.35,11.27-11.91,11.19
		c-6.61-0.08-11.34-5.06-11.19-11.78C412.3,378.5,417.37,373.98,424.01,374.03z"/>
	<path fill="#010101" d="M337.91,316.64c-6.15-0.08-11.19-5.3-11.16-11.55c0.05-5.97,5.53-11.37,11.52-11.34
		c6.18,0,11.42,5.27,11.4,11.34C349.62,311.55,344.35,316.72,337.91,316.64z"/>
	<path fill="#010101" d="M191.2,87.73c-6.25,0.1-11.42-5.25-11.4-11.81c0-5.84,5.04-10.85,11.08-11.03
		c6.56-0.21,11.91,4.78,11.96,11.19c0.05,6.25-5.27,11.58-11.65,11.68l0,0V87.73z"/>
	<path fill="#010101" d="M85.21,396.56c-6.28-0.05-11.21-4.73-11.29-10.7c-0.1-6.54,4.99-11.76,11.4-11.73
		c6.54,0,11.29,4.78,11.27,11.27c0,6.43-4.88,11.24-11.34,11.16L85.21,396.56L85.21,396.56z"/>
	<path fill="#010101" d="M216.65,283.8c17.78-27.8,57.8-27.91,75.92,0.05c1.5-1.37,3-2.58,4.34-3.95
		c25.19-25.48,50.31-51.01,75.61-76.35c2.3-2.3,2.12-3.93,1.16-6.56c-4.01-10.88-0.98-22.69,7.08-28.66
		c9.48-7,22.27-7.34,31.45-0.85c9.22,6.54,12.35,19.35,7.52,30.65c-4.47,10.44-15.66,16.56-27.08,14.19c-3.69-0.78-6.1,0-8.58,2.51
		c-27.31,27.44-54.65,54.86-82.01,82.25c-2.56,2.56-3.59,5.27-3.51,9.02c0.36,22.22-10.59,37.6-31.76,44.18
		c-4.21,1.32-3.98,3.75-3.98,6.85c-0.16,55.55-0.34,111.11-0.52,166.64c0,2.04,0,4.08-0.1,6.12c-0.26,4.65-3.33,6.64-7.44,6.72
		c-4.24,0.1-7.16-2.2-7.49-6.67c-0.26-3.38-0.05-6.8-0.05-10.18c0-54.37,0-108.73,0.13-163.07c0-3.98-1.32-5.48-4.99-6.67
		c-21.19-6.85-32.09-22.53-31.83-44.91c0-1.96-0.65-4.5-1.96-5.84c-28.09-28.6-56.28-57.1-84.55-85.5c-1.14-1.14-3.62-1.68-5.3-1.45
		c-19.56,2.82-32.58-9.3-30.77-28.84c1.09-11.71,12.04-20.77,24.96-20.65c12.38,0.1,23.38,9.69,23.93,21.24
		c0.18,4.01-0.1,8.27-1.37,12.02c-1.21,3.59-0.31,5.61,2.07,7.96c23.33,23.26,46.61,46.56,69.87,69.89c3.1,3.1,6.02,6.38,9.33,9.87
		C216.7,283.8,216.65,283.8,216.65,283.8z M283.88,307.78c0-17.16-12.38-29.64-29.38-29.66c-16.56,0-29.04,12.45-28.94,28.94
		c0.1,16.38,13.77,30.44,29.51,30.34c15.5-0.13,28.84-13.8,28.84-29.61l0,0L283.88,307.78z M397.16,178.12
		c-5.14,0-9.48,4.24-9.53,9.28c-0.05,5.48,4.52,10.34,9.77,10.36c5.22,0,9.69-4.42,9.77-9.66c0.08-5.43-4.5-9.97-10-9.95l0,0V178.12
		z M121.74,187.88c0.13-5.43-4.13-9.9-9.41-9.9s-9.74,4.29-9.87,9.12c-0.13,5.4,4.5,10.46,9.66,10.57c5.22,0.1,9.46-4.21,9.59-9.82
		l0,0L121.74,187.88z"/>
	<path fill="#010101" d="M247.06,191.06v-10.52c-0.05-30.23-0.18-60.49-0.08-90.72c0-3.82-1.01-5.58-4.78-6.85
		c-26.12-8.84-30-43.72-14.52-58.68c13.54-13.13,38.94-13.72,52.58,0.23c14.08,14.39,13.36,38.5-1.81,51.34
		c-3.57,3.02-8.09,4.91-11.91,7.67c-1.47,1.06-3.26,3.02-3.26,4.63c-0.39,32.94-0.54,65.92-0.7,98.86c0,0.93,0.23,1.89,0.34,2.82
		c0.52,0.39,1.06,0.75,1.58,1.14c0.88-1.45,1.5-3.1,2.64-4.26c20.15-20.65,40.36-41.21,60.54-61.81c0.59-0.59,1.14-1.32,1.83-1.76
		c6.3-3.85,8.76-8.58,7.39-16.64c-2.02-11.83,9.82-23.9,22.51-24.78c12.92-0.9,25.32,9.07,26.28,21.14
		c1.55,19.53-13.88,32.07-33.05,26.59c-3.46-0.98-5.48-0.36-7.86,2.04c-26.1,26.28-52.25,52.48-78.5,78.58
		c-2.66,2.66-3.7,5.32-3.54,8.97c0.26,5.94,0.23,11.89,0.03,17.83c-0.21,6.05-2.84,8.6-8.37,8.58c-5.14,0-7.23-2.43-7.36-8.73
		c-0.1-4.94-0.47-9.9,0-14.78c0.54-5.79-1.68-9.69-5.76-13.69c-25.43-25.01-50.62-50.26-75.76-75.58c-2.92-2.95-5.14-4.06-9.46-2.66
		c-11.52,3.72-23.69-1.19-29.04-10.9c-6.3-11.45-4.73-22.48,4.47-31.03c7.08-6.61,17.18-8.14,26.02-3.98
		c9.87,4.68,15.48,13.36,14.13,24.19c-0.7,5.56,0.9,8.99,4.7,12.74c21.99,21.73,43.72,43.72,65.58,65.58
		c1.29,1.29,2.74,2.4,5.17,4.52v-0.05H247.06z M254.58,70.21c10.21,0.16,20.62-10.03,20.88-20.46c0.26-10.88-9.1-20.26-20.39-20.41
		c-11.78-0.16-20.83,8.42-21.21,20.05C233.5,60.21,243.29,70.03,254.58,70.21z M361.92,97.29c-5.53-0.26-9.66,3.26-9.97,8.5
		c-0.31,5.22,3.51,9.84,8.45,10.21c5.19,0.36,9.92-3.8,10.23-9.04C370.93,101.53,367.37,97.55,361.92,97.29L361.92,97.29
		L361.92,97.29z M147.84,115.79c5.17-0.1,9.04-4.03,9.04-9.1c0-5.32-4.52-9.66-9.84-9.51c-5.06,0.16-8.71,4.08-8.68,9.38
		C138.36,111.76,142.65,115.92,147.84,115.79z"/>
	<path fill="#010101" d="M229.18,418.76c-2.48-2.14-3.9-3.2-5.14-4.44c-28.09-27.65-56.15-55.3-84.21-82.94
		c-5.45-5.37-10.72-10.9-16.38-16.05c-1.65-1.5-4.34-2.61-6.56-2.66c-12.56-0.28-25.14-0.03-37.7-0.31c-3.9-0.1-5.5,1.27-6.9,4.83
		c-5.79,14.7-18.81,22.61-34.08,21.11c-14.78-1.45-26.1-11.94-29.17-27.05c-3.49-17.18,6.67-34.11,23.33-38.91
		c17-4.91,34.26,3.85,40.1,20.67c1.14,3.28,2.82,3.93,5.92,3.9c14.6-0.16,29.22,0.05,43.82-0.18c4.11-0.08,7,1.24,9.82,4.08
		c31.24,31.19,62.63,62.27,93.82,93.54c1.89,1.89,2.95,5.17,3.23,7.91c0.52,4.99,0.16,10.05,0.16,16.54h-0.05V418.76z M41.56,286.1
		c-10.26-0.08-18.81,8.4-18.81,18.63c0,10.23,8.19,19.48,18.04,19.66c10.39,0.18,19.35-8.84,19.38-19.46
		C60.17,294.5,51.95,286.18,41.56,286.1z"/>
	<path fill="#010101" d="M280.73,416.82c0-6.07-0.31-12.2,0.16-18.22c0.16-2.02,1.94-4.21,3.51-5.79
		c18.68-18.55,37.49-36.98,56.17-55.48c12.43-12.3,24.62-24.83,37.21-36.95c2.04-1.96,5.53-3.33,8.4-3.41
		c14.6-0.34,29.22-0.23,43.82-0.08c3.18,0.03,4.68-0.9,5.84-4.03c6.51-17.57,25.45-26.17,42.69-19.72
		c17.54,6.56,25.81,25.94,18.99,44.6c-6.2,16.95-24.7,25.61-42.01,19.22c-9.72-3.59-16.51-10.67-19.97-20.46
		c-1.11-3.15-2.61-4.03-5.81-4.01c-12.56,0.18-25.14-0.1-37.7,0.18c-2.53,0.05-5.66,1.34-7.44,3.1
		c-32.51,32.07-64.83,64.31-97.15,96.53c-1.76,1.76-3.15,3.9-4.73,5.87c-0.65-0.44-1.29-0.9-1.96-1.34l0,0V416.82z M467.16,286.05
		c-10.36-0.1-19.15,8.35-19.12,18.45c0,10.98,8.11,19.66,18.4,19.74c10.26,0.08,18.91-8.35,19.1-18.58
		c0.21-11.06-7.73-19.51-18.35-19.61l0,0H467.16z"/>
	<path fill="#010101" d="M331.43,410.41c-11.34,11.06-22.56,21.89-33.56,32.92c-1.09,1.09-1.32,3.41-1.32,5.14
		c-0.08,24.78-0.05,49.56-0.05,74.34c0,1.86,0.13,3.75-0.08,5.61c-0.54,5.14-4.06,8.24-8.79,7.91c-4.44-0.31-6.8-3.02-6.82-8.4
		c-0.1-19.53-0.08-39.04-0.1-58.58c0-9.17-0.18-18.35-0.08-27.49c0-1.89,0.44-4.26,1.63-5.53c15.43-16.49,31.01-32.79,47.08-49.74
		c17.62,17.13,33.46,32.56,49.2,47.85c3.02-1.91,5.27-3.77,7.86-4.94c9.1-4.11,18.76-2.25,25.81,4.73
		c7.23,7.16,9.51,17.98,5.71,27.26c-3.75,9.2-11.73,14.39-21.94,14.29c-14.96-0.16-23.85-8.84-24.62-23.82
		c-0.08-1.52-0.67-3.41-1.71-4.44c-12.4-12.33-24.93-24.5-37.44-36.69c-0.34-0.34-0.85-0.47-0.78-0.44l0,0V410.41z M396.44,442.35
		c-5.5,0-9.92,4.03-10.05,9.25c-0.16,5.97,4.11,10.67,9.74,10.75c5.3,0.08,10.03-4.55,10.18-9.92
		C406.46,446.97,401.97,442.37,396.44,442.35L396.44,442.35L396.44,442.35z"/>
	<path fill="#010101" d="M331.43,410.41c-11.34,11.06-22.56,21.89-33.56,32.92c-1.09,1.09-1.32,3.41-1.32,5.14
		c-0.08,24.78-0.05,49.56-0.05,74.34c0,1.86,0.13,3.75-0.08,5.61c-0.54,5.14-4.06,8.24-8.79,7.91c-4.44-0.31-6.8-3.02-6.82-8.4
		c-0.1-19.53-0.08-39.04-0.1-58.58c0-9.17-0.18-18.35-0.08-27.49c0-1.89,0.44-4.26,1.63-5.53c15.43-16.49,31.01-32.79,47.08-49.74
		c17.62,17.13,33.46,32.56,49.2,47.85c3.02-1.91,5.27-3.77,7.86-4.94c9.1-4.11,18.76-2.25,25.81,4.73
		c7.23,7.16,9.51,17.98,5.71,27.26c-3.75,9.2-11.73,14.39-21.94,14.29c-14.96-0.16-23.85-8.84-24.62-23.82
		c-0.08-1.52-0.67-3.41-1.71-4.44c-12.4-12.33-24.93-24.5-37.44-36.69c-0.34-0.34-0.85-0.47-0.78-0.44l0,0V410.41z M396.44,442.35
		c-5.5,0-9.92,4.03-10.05,9.25c-0.16,5.97,4.11,10.67,9.74,10.75c5.3,0.08,10.03-4.55,10.18-9.92
		C406.46,446.97,401.97,442.37,396.44,442.35L396.44,442.35L396.44,442.35z"/>
	<path fill="#010101" d="M179.65,410.59c-13.9,13.26-26.8,25.5-39.56,37.88c-1.03,1.01-1.34,3-1.6,4.6
		c-2.45,14.99-13.13,23.88-27.54,22.82c-11.52-0.85-21.03-10.67-21.78-22.45c-0.72-11.68,7.57-22.95,18.73-25.17
		c8.35-1.68,15.87-0.05,22.14,6.77c4.6-4.44,8.97-8.63,13.31-12.84c10.36-10.05,20.75-20.05,31.01-30.21c2.53-2.51,4.39-3,7.11-0.23
		c14.7,14.83,29.61,29.48,44.24,44.39c1.55,1.58,2.61,4.39,2.64,6.64c0.21,28.19,0.21,56.41,0.18,84.6c0,6.18-2.53,8.79-7.98,8.71
		c-4.78-0.08-6.98-2.76-6.98-8.6c-0.03-25.48-0.13-50.98,0-76.46c0-3.85-1.03-6.64-3.8-9.41c-10.52-10.54-20.8-21.34-30.15-31.03
		L179.65,410.59L179.65,410.59z M123.03,452.01c0.08-5.43-3.98-9.53-9.53-9.69c-5.37-0.16-9.48,3.98-9.53,9.64
		c-0.08,5.92,3.57,10.15,8.84,10.28C118.56,462.4,122.96,458.03,123.03,452.01L123.03,452.01L123.03,452.01z"/>
</g>
</svg>
