<?xml version="1.0" encoding="UTF-8" standalone="no"?>
<svg
   xmlns:dc="http://purl.org/dc/elements/1.1/"
   xmlns:cc="http://creativecommons.org/ns#"
   xmlns:rdf="http://www.w3.org/1999/02/22-rdf-syntax-ns#"
   xmlns:svg="http://www.w3.org/2000/svg"
   xmlns="http://www.w3.org/2000/svg"
   xmlns:sodipodi="http://sodipodi.sourceforge.net/DTD/sodipodi-0.dtd"
   xmlns:inkscape="http://www.inkscape.org/namespaces/inkscape"
   id="Layer_2"
   data-name="Layer 2"
   viewBox="0 0 753.04 202.15"
   version="1.1"
   sodipodi:docname="ypn-white.svg"
   inkscape:version="0.92.5 (2060ec1f9f, 2020-04-08)">
  <metadata
     id="metadata4566">
    <rdf:RDF>
      <cc:Work
         rdf:about="">
        <dc:format>image/svg+xml</dc:format>
        <dc:type
           rdf:resource="http://purl.org/dc/dcmitype/StillImage" />
        <dc:title></dc:title>
      </cc:Work>
    </rdf:RDF>
  </metadata>
  <sodipodi:namedview
     pagecolor="#ffffff"
     bordercolor="#666666"
     borderopacity="1"
     objecttolerance="10"
     gridtolerance="10"
     guidetolerance="10"
     inkscape:pageopacity="0"
     inkscape:pageshadow="2"
     inkscape:window-width="1916"
     inkscape:window-height="1029"
     id="namedview4564"
     showgrid="false"
     inkscape:zoom="2.3265697"
     inkscape:cx="342.1346"
     inkscape:cy="101.075"
     inkscape:window-x="0"
     inkscape:window-y="24"
     inkscape:window-maximized="0"
     inkscape:current-layer="g4561" />
  <defs
     id="defs4436">
    <style
       id="style4416">
      .cls-1, .cls-2 {
        fill: #fff;
      }

      .cls-3 {
        clip-path: url(#clippath-2);
      }

      .cls-4 {
        clip-path: url(#clippath-1);
      }

      .cls-5 {
        clip-path: url(#clippath-4);
      }

      .cls-2 {
        stroke-width: 0px;
      }

      .cls-6 {
        clip-path: url(#clippath);
      }

      .cls-7 {
        clip-path: url(#clippath-3);
      }

      .cls-8 {
        clip-path: url(#clippath-5);
      }
    </style>
    <clipPath
       id="clippath">
      <path
         class="cls-2"
         d="M80.61,104.32c6.88-10.76,22.37-10.8,29.38.02.58-.53,1.16-1,1.68-1.53,9.75-9.86,19.47-19.74,29.26-29.55.89-.89.82-1.52.45-2.54-1.55-4.21-.38-8.78,2.74-11.09,3.67-2.71,8.62-2.84,12.17-.33,3.57,2.53,4.78,7.49,2.91,11.86-1.73,4.04-6.06,6.41-10.48,5.49-1.43-.3-2.36,0-3.32.97-10.57,10.62-21.15,21.23-31.74,31.83-.99.99-1.39,2.04-1.36,3.49.14,8.6-4.1,14.55-12.29,17.1-1.63.51-1.54,1.45-1.54,2.65-.06,21.5-.13,43-.2,64.49,0,.79,0,1.58-.04,2.37-.1,1.8-1.29,2.57-2.88,2.6-1.64.04-2.77-.85-2.9-2.58-.1-1.31-.02-2.63-.02-3.94,0-21.04,0-42.08.05-63.11,0-1.54-.51-2.12-1.93-2.58-8.2-2.65-12.42-8.72-12.32-17.38,0-.76-.25-1.74-.76-2.26-10.87-11.07-21.78-22.1-32.72-33.09-.44-.44-1.4-.65-2.05-.56-7.57,1.09-12.61-3.6-11.91-11.16.42-4.53,4.66-8.04,9.66-7.99,4.79.04,9.05,3.75,9.26,8.22.07,1.55-.04,3.2-.53,4.65-.47,1.39-.12,2.17.8,3.08,9.03,9,18.04,18.02,27.04,27.05,1.2,1.2,2.33,2.47,3.61,3.82h-.02ZM106.63,113.6c0-6.64-4.79-11.47-11.37-11.48-6.41,0-11.24,4.82-11.2,11.2.04,6.34,5.33,11.78,11.42,11.74,6-.05,11.16-5.34,11.16-11.46h0ZM150.47,63.42c-1.99,0-3.67,1.64-3.69,3.59-.02,2.12,1.75,4,3.78,4.01,2.02,0,3.75-1.71,3.78-3.74.03-2.1-1.74-3.86-3.87-3.85h0ZM43.88,67.2c.05-2.1-1.6-3.83-3.64-3.83s-3.77,1.66-3.82,3.53c-.05,2.09,1.74,4.05,3.74,4.09,2.02.04,3.66-1.63,3.71-3.8h0Z"
         id="path4418" />
    </clipPath>
    <clipPath
       id="clippath-1">
      <path
         class="cls-2"
         d="M92.38,68.43v-4.07c-.02-11.7-.07-23.41-.03-35.11,0-1.48-.39-2.16-1.85-2.65-10.11-3.42-11.61-16.92-5.62-22.71,5.24-5.08,15.07-5.31,20.35.09,5.45,5.57,5.17,14.9-.7,19.87-1.38,1.17-3.13,1.9-4.61,2.97-.57.41-1.26,1.17-1.26,1.79-.15,12.75-.21,25.51-.27,38.26,0,.36.09.73.13,1.09.2.15.41.29.61.44.34-.56.58-1.2,1.02-1.65,7.8-7.99,15.62-15.95,23.43-23.92.23-.23.44-.51.71-.68,2.44-1.49,3.39-3.32,2.86-6.44-.78-4.58,3.8-9.25,8.71-9.59,5-.35,9.8,3.51,10.17,8.18.6,7.56-5.37,12.41-12.79,10.29-1.34-.38-2.12-.14-3.04.79-10.1,10.17-20.22,20.31-30.38,30.41-1.03,1.03-1.43,2.06-1.37,3.47.1,2.3.09,4.6.01,6.9-.08,2.34-1.1,3.33-3.24,3.32-1.99,0-2.8-.94-2.85-3.38-.04-1.91-.18-3.83,0-5.72.21-2.24-.65-3.75-2.23-5.3-9.84-9.68-19.59-19.45-29.32-29.25-1.13-1.14-1.99-1.57-3.66-1.03-4.46,1.44-9.17-.46-11.24-4.22-2.44-4.43-1.83-8.7,1.73-12.01,2.74-2.56,6.65-3.15,10.07-1.54,3.82,1.81,5.99,5.17,5.47,9.36-.27,2.15.35,3.48,1.82,4.93,8.51,8.41,16.92,16.92,25.38,25.38.5.5,1.06.93,2,1.75v-.02ZM95.29,21.66c3.95.06,7.98-3.88,8.08-7.92.1-4.21-3.52-7.84-7.89-7.9-4.56-.06-8.06,3.26-8.21,7.76-.14,4.19,3.65,7.99,8.02,8.06ZM136.83,32.14c-2.14-.1-3.74,1.26-3.86,3.29-.12,2.02,1.36,3.81,3.27,3.95,2.01.14,3.84-1.47,3.96-3.5.12-2.1-1.26-3.64-3.37-3.74h0ZM53.98,39.3c2-.04,3.5-1.56,3.5-3.52,0-2.06-1.75-3.74-3.81-3.68-1.96.06-3.37,1.58-3.36,3.63,0,2.01,1.66,3.62,3.67,3.57Z"
         id="path4421" />
    </clipPath>
    <clipPath
       id="clippath-2">
      <path
         class="cls-2"
         d="M85.46,156.55c-.96-.83-1.51-1.24-1.99-1.72-10.87-10.7-21.73-21.4-32.59-32.1-2.11-2.08-4.15-4.22-6.34-6.21-.64-.58-1.68-1.01-2.54-1.03-4.86-.11-9.73-.01-14.59-.12-1.51-.04-2.13.49-2.67,1.87-2.24,5.69-7.28,8.75-13.19,8.17-5.72-.56-10.1-4.62-11.29-10.47-1.35-6.65,2.58-13.2,9.03-15.06,6.58-1.9,13.26,1.49,15.52,8,.44,1.27,1.09,1.52,2.29,1.51,5.65-.06,11.31.02,16.96-.07,1.59-.03,2.71.48,3.8,1.58,12.09,12.07,24.24,24.1,36.31,36.2.73.73,1.14,2,1.25,3.06.2,1.93.06,3.89.06,6.4h-.02ZM12.85,105.21c-3.97-.03-7.28,3.25-7.28,7.21s3.17,7.54,6.98,7.61c4.02.07,7.49-3.42,7.5-7.53,0-4.04-3.18-7.26-7.2-7.29Z"
         id="path4424" />
    </clipPath>
    <clipPath
       id="clippath-3">
      <path
         class="cls-2"
         d="M105.41,155.8c0-2.35-.12-4.72.06-7.05.06-.78.75-1.63,1.36-2.24,7.23-7.18,14.51-14.31,21.74-21.47,4.81-4.76,9.53-9.61,14.4-14.3.79-.76,2.14-1.29,3.25-1.32,5.65-.13,11.31-.09,16.96-.03,1.23.01,1.81-.35,2.26-1.56,2.52-6.8,9.85-10.13,16.52-7.63,6.79,2.54,9.99,10.04,7.35,17.26-2.4,6.56-9.56,9.91-16.26,7.44-3.76-1.39-6.39-4.13-7.73-7.92-.43-1.22-1.01-1.56-2.25-1.55-4.86.07-9.73-.04-14.59.07-.98.02-2.19.52-2.88,1.2-12.58,12.41-25.09,24.89-37.6,37.36-.68.68-1.22,1.51-1.83,2.27-.25-.17-.5-.35-.76-.52h0ZM177.56,105.19c-4.01-.04-7.41,3.23-7.4,7.14,0,4.25,3.14,7.61,7.12,7.64,3.97.03,7.32-3.23,7.39-7.19.08-4.28-2.99-7.55-7.1-7.59h0Z"
         id="path4427" />
    </clipPath>
    <clipPath
       id="clippath-4">
      <path
         class="cls-2"
         d="M125.03,153.32c-4.39,4.28-8.73,8.47-12.99,12.74-.42.42-.51,1.32-.51,1.99-.03,9.59-.02,19.18-.02,28.77,0,.72.05,1.45-.03,2.17-.21,1.99-1.57,3.19-3.4,3.06-1.72-.12-2.63-1.17-2.64-3.25-.04-7.56-.03-15.11-.04-22.67,0-3.55-.07-7.1-.03-10.64,0-.73.17-1.65.63-2.14,5.97-6.38,12-12.69,18.22-19.25,6.82,6.63,12.95,12.6,19.04,18.52,1.17-.74,2.04-1.46,3.04-1.91,3.52-1.59,7.26-.87,9.99,1.83,2.8,2.77,3.68,6.96,2.21,10.55-1.45,3.56-4.54,5.57-8.49,5.53-5.79-.06-9.23-3.42-9.53-9.22-.03-.59-.26-1.32-.66-1.72-4.8-4.77-9.65-9.48-14.49-14.2-.13-.13-.33-.18-.3-.17h0ZM150.19,165.68c-2.13,0-3.84,1.56-3.89,3.58-.06,2.31,1.59,4.13,3.77,4.16,2.05.03,3.88-1.76,3.94-3.84.06-2.11-1.68-3.89-3.82-3.9h0Z"
         id="path4430" />
    </clipPath>
    <clipPath
       id="clippath-5">
      <path
         class="cls-2"
         d="M66.29,153.39c-5.38,5.13-10.37,9.87-15.31,14.66-.4.39-.52,1.16-.62,1.78-.95,5.8-5.08,9.24-10.66,8.83-4.46-.33-8.14-4.13-8.43-8.69-.28-4.52,2.93-8.88,7.25-9.74,3.23-.65,6.14-.02,8.57,2.62,1.78-1.72,3.47-3.34,5.15-4.97,4.01-3.89,8.03-7.76,12-11.69.98-.97,1.7-1.16,2.75-.09,5.69,5.74,11.46,11.41,17.12,17.18.6.61,1.01,1.7,1.02,2.57.08,10.91.08,21.83.07,32.74,0,2.39-.98,3.4-3.09,3.37-1.85-.03-2.7-1.07-2.7-3.33-.01-9.86-.05-19.73,0-29.59,0-1.49-.4-2.57-1.47-3.64-4.07-4.08-8.05-8.26-11.67-12.01h.02ZM44.38,169.42c.03-2.1-1.54-3.69-3.69-3.75-2.08-.06-3.67,1.54-3.69,3.73-.03,2.29,1.38,3.93,3.42,3.98,2.23.06,3.93-1.63,3.96-3.96h0Z"
         id="path4433" />
    </clipPath>
  </defs>
  <g
     id="g4561"
     data-name="Layer 1"
     style="fill:#f2f2f2">
    <g
       id="g4454"
       style="fill:#f2f2f2">
      <path
         class="cls-2"
         d="M 239.98,133.58 V 106.33 L 218.14,68.54 h 14.97 L 248.98,96 265.53,68.54 h 10.71 l -22.72,37.7 v 27.33 h -13.54 z"
         id="path4438"
         style="fill:#f2f2f2;stroke-width:0px"
         inkscape:connector-curvature="0" />
      <path
         class="cls-2"
         d="M 286.3,133.58 V 68.54 h 22.36 c 6.5,0 11.07,0.68 13.72,2.04 2.64,1.36 4.64,3.29 5.98,5.78 1.34,2.49 2.02,5.62 2.02,9.4 0,7.27 -2.29,12.8 -6.87,16.61 -4.58,3.81 -10.72,5.71 -18.42,5.71 h -5.52 v 25.49 H 286.3 Z m 13.27,-34.41 h 2.54 c 4.98,0 8.63,-1.19 10.96,-3.58 2.33,-2.39 3.5,-5.19 3.5,-8.42 0,-1.82 -0.37,-3.46 -1.1,-4.94 -0.74,-1.48 -1.87,-2.64 -3.41,-3.49 -1.54,-0.85 -4.01,-1.27 -7.4,-1.27 h -5.09 v 21.71 z"
         id="path4440"
         style="fill:#f2f2f2;stroke-width:0px"
         inkscape:connector-curvature="0" />
      <path
         class="cls-2"
         d="M 341.49,133.58 V 68.54 h 11.93 l 30.08,44.43 V 68.54 h 10.85 v 65.04 H 382.21 L 352.34,89.15 v 44.43 z"
         id="path4442"
         style="fill:#f2f2f2;stroke-width:0px"
         inkscape:connector-curvature="0" />
    </g>
    <g
       id="Layer_1-2"
       data-name="Layer 1-2"
       style="fill:#f2f2f2">
      <g
         id="g4558"
         style="fill:#f2f2f2">
        <path
           class="cls-2"
           d="m 67.57,112.41 c 0.04,2.71 -1.83,4.62 -4.53,4.61 -2.52,0 -4.45,-1.83 -4.51,-4.26 -0.06,-2.42 2.03,-4.61 4.41,-4.65 2.68,-0.04 4.6,1.74 4.64,4.29 h -0.01 z"
           id="path4456"
           style="fill:#f2f2f2;stroke-width:0px"
           inkscape:connector-curvature="0" />
        <path
           class="cls-2"
           d="m 73.44,77.39 c -0.03,2.68 -1.89,4.36 -4.78,4.31 -2.37,-0.04 -4.25,-1.91 -4.27,-4.25 -0.02,-2.55 2.07,-4.61 4.64,-4.56 2.64,0.05 4.44,1.88 4.41,4.5 z"
           id="path4458"
           style="fill:#f2f2f2;stroke-width:0px"
           inkscape:connector-curvature="0" />
        <path
           class="cls-2"
           d="m 165.87,92.2 c -2.53,-0.02 -4.48,-1.98 -4.5,-4.52 -0.02,-2.32 2.22,-4.43 4.66,-4.39 2.59,0.04 4.35,1.82 4.31,4.38 -0.04,2.6 -1.96,4.55 -4.47,4.53 z"
           id="path4460"
           style="fill:#f2f2f2;stroke-width:0px"
           inkscape:connector-curvature="0" />
        <path
           class="cls-2"
           d="m 121.86,72.87 c 2.52,0.03 4.35,1.99 4.32,4.62 -0.02,2.43 -1.97,4.36 -4.39,4.38 -2.55,0.02 -4.51,-1.97 -4.46,-4.49 0.06,-2.5 2.1,-4.54 4.53,-4.51 z"
           id="path4462"
           style="fill:#f2f2f2;stroke-width:0px"
           inkscape:connector-curvature="0" />
        <path
           class="cls-2"
           d="m 115.62,23.87 c 0,-2.49 1.74,-4.27 4.16,-4.29 2.62,-0.02 4.82,2.03 4.8,4.46 -0.02,2.42 -2.16,4.5 -4.6,4.46 -2.46,-0.04 -4.37,-2.06 -4.36,-4.63 z"
           id="path4464"
           style="fill:#f2f2f2;stroke-width:0px"
           inkscape:connector-curvature="0" />
        <path
           class="cls-2"
           d="m 160.86,139.24 c 2.48,0.03 4.35,1.88 4.36,4.34 0,2.41 -2.07,4.36 -4.61,4.33 -2.56,-0.03 -4.39,-1.96 -4.33,-4.56 0.05,-2.38 2.01,-4.13 4.58,-4.11 z"
           id="path4466"
           style="fill:#f2f2f2;stroke-width:0px"
           inkscape:connector-curvature="0" />
        <path
           class="cls-2"
           d="m 127.54,117.03 c -2.38,-0.03 -4.33,-2.05 -4.32,-4.47 0.02,-2.31 2.14,-4.4 4.46,-4.39 2.39,0 4.42,2.04 4.41,4.39 -0.02,2.5 -2.06,4.5 -4.55,4.47 z"
           id="path4468"
           style="fill:#f2f2f2;stroke-width:0px"
           inkscape:connector-curvature="0" />
        <path
           class="cls-2"
           d="m 70.76,28.44 c -2.42,0.04 -4.42,-2.03 -4.41,-4.57 0,-2.26 1.95,-4.2 4.29,-4.27 2.54,-0.08 4.61,1.85 4.63,4.33 0.02,2.42 -2.04,4.48 -4.51,4.52 v 0 z"
           id="path4470"
           style="fill:#f2f2f2;stroke-width:0px"
           inkscape:connector-curvature="0" />
        <path
           class="cls-2"
           d="m 29.74,147.96 c -2.43,-0.02 -4.34,-1.83 -4.37,-4.14 -0.04,-2.53 1.93,-4.55 4.41,-4.54 2.53,0 4.37,1.85 4.36,4.36 0,2.49 -1.89,4.35 -4.39,4.32 z"
           id="path4472"
           style="fill:#f2f2f2;stroke-width:0px"
           inkscape:connector-curvature="0" />
        <g
           id="g4490"
           style="fill:#f2f2f2">
          <path
             class="cls-2"
             d="m 80.61,104.32 c 6.88,-10.76 22.37,-10.8 29.38,0.02 0.58,-0.53 1.16,-1 1.68,-1.53 9.75,-9.86 19.47,-19.74 29.26,-29.55 0.89,-0.89 0.82,-1.52 0.45,-2.54 -1.55,-4.21 -0.38,-8.78 2.74,-11.09 3.67,-2.71 8.62,-2.84 12.17,-0.33 3.57,2.53 4.78,7.49 2.91,11.86 -1.73,4.04 -6.06,6.41 -10.48,5.49 -1.43,-0.3 -2.36,0 -3.32,0.97 -10.57,10.62 -21.15,21.23 -31.74,31.83 -0.99,0.99 -1.39,2.04 -1.36,3.49 0.14,8.6 -4.1,14.55 -12.29,17.1 -1.63,0.51 -1.54,1.45 -1.54,2.65 -0.06,21.5 -0.13,43 -0.2,64.49 0,0.79 0,1.58 -0.04,2.37 -0.1,1.8 -1.29,2.57 -2.88,2.6 -1.64,0.04 -2.77,-0.85 -2.9,-2.58 -0.1,-1.31 -0.02,-2.63 -0.02,-3.94 0,-21.04 0,-42.08 0.05,-63.11 0,-1.54 -0.51,-2.12 -1.93,-2.58 -8.2,-2.65 -12.42,-8.72 -12.32,-17.38 0,-0.76 -0.25,-1.74 -0.76,-2.26 C 66.6,99.23 55.69,88.2 44.75,77.21 44.31,76.77 43.35,76.56 42.7,76.65 35.13,77.74 30.09,73.05 30.79,65.49 c 0.42,-4.53 4.66,-8.04 9.66,-7.99 4.79,0.04 9.05,3.75 9.26,8.22 0.07,1.55 -0.04,3.2 -0.53,4.65 -0.47,1.39 -0.12,2.17 0.8,3.08 9.03,9 18.04,18.02 27.04,27.05 1.2,1.2 2.33,2.47 3.61,3.82 z m 26.02,9.28 c 0,-6.64 -4.79,-11.47 -11.37,-11.48 -6.41,0 -11.24,4.82 -11.2,11.2 0.04,6.34 5.33,11.78 11.42,11.74 6,-0.05 11.16,-5.34 11.16,-11.46 v 0 z m 43.84,-50.18 c -1.99,0 -3.67,1.64 -3.69,3.59 -0.02,2.12 1.75,4 3.78,4.01 2.02,0 3.75,-1.71 3.78,-3.74 0.03,-2.1 -1.74,-3.86 -3.87,-3.85 v 0 z M 43.88,67.2 c 0.05,-2.1 -1.6,-3.83 -3.64,-3.83 -2.04,0 -3.77,1.66 -3.82,3.53 -0.05,2.09 1.74,4.05 3.74,4.09 2.02,0.04 3.66,-1.63 3.71,-3.8 v 0 z"
             id="path4474"
             style="fill:#f2f2f2;stroke-width:0px"
             inkscape:connector-curvature="0" />
          <g
             id="g4488"
             style="fill:#f2f2f2">
            <path
               class="cls-1"
               d="m 80.61,104.32 c 6.88,-10.76 22.37,-10.8 29.38,0.02 0.58,-0.53 1.16,-1 1.68,-1.53 9.75,-9.86 19.47,-19.74 29.26,-29.55 0.89,-0.89 0.82,-1.52 0.45,-2.54 -1.55,-4.21 -0.38,-8.78 2.74,-11.09 3.67,-2.71 8.62,-2.84 12.17,-0.33 3.57,2.53 4.78,7.49 2.91,11.86 -1.73,4.04 -6.06,6.41 -10.48,5.49 -1.43,-0.3 -2.36,0 -3.32,0.97 -10.57,10.62 -21.15,21.23 -31.74,31.83 -0.99,0.99 -1.39,2.04 -1.36,3.49 0.14,8.6 -4.1,14.55 -12.29,17.1 -1.63,0.51 -1.54,1.45 -1.54,2.65 -0.06,21.5 -0.13,43 -0.2,64.49 0,0.79 0,1.58 -0.04,2.37 -0.1,1.8 -1.29,2.57 -2.88,2.6 -1.64,0.04 -2.77,-0.85 -2.9,-2.58 -0.1,-1.31 -0.02,-2.63 -0.02,-3.94 0,-21.04 0,-42.08 0.05,-63.11 0,-1.54 -0.51,-2.12 -1.93,-2.58 -8.2,-2.65 -12.42,-8.72 -12.32,-17.38 0,-0.76 -0.25,-1.74 -0.76,-2.26 C 66.6,99.23 55.69,88.2 44.75,77.21 44.31,76.77 43.35,76.56 42.7,76.65 35.13,77.74 30.09,73.05 30.79,65.49 c 0.42,-4.53 4.66,-8.04 9.66,-7.99 4.79,0.04 9.05,3.75 9.26,8.22 0.07,1.55 -0.04,3.2 -0.53,4.65 -0.47,1.39 -0.12,2.17 0.8,3.08 9.03,9 18.04,18.02 27.04,27.05 1.2,1.2 2.33,2.47 3.61,3.82 z m 26.02,9.28 c 0,-6.64 -4.79,-11.47 -11.37,-11.48 -6.41,0 -11.24,4.82 -11.2,11.2 0.04,6.34 5.33,11.78 11.42,11.74 6,-0.05 11.16,-5.34 11.16,-11.46 v 0 z m 43.84,-50.18 c -1.99,0 -3.67,1.64 -3.69,3.59 -0.02,2.12 1.75,4 3.78,4.01 2.02,0 3.75,-1.71 3.78,-3.74 0.03,-2.1 -1.74,-3.86 -3.87,-3.85 v 0 z M 43.88,67.2 c 0.05,-2.1 -1.6,-3.83 -3.64,-3.83 -2.04,0 -3.77,1.66 -3.82,3.53 -0.05,2.09 1.74,4.05 3.74,4.09 2.02,0.04 3.66,-1.63 3.71,-3.8 v 0 z"
               id="path4476"
               style="fill:#f2f2f2"
               inkscape:connector-curvature="0" />
            <g
               class="cls-6"
               clip-path="url(#clippath)"
               id="g4486"
               style="fill:#f2f2f2">
              <g
                 id="g4484"
                 style="fill:#f2f2f2">
                <path
                   class="cls-2"
                   d="m 106.63,113.6 c 0,6.12 -5.16,11.41 -11.16,11.46 -6.08,0.05 -11.38,-5.4 -11.42,-11.74 -0.04,-6.38 4.79,-11.21 11.2,-11.2 6.59,0 11.37,4.84 11.37,11.48 z"
                   id="path4478"
                   style="fill:#f2f2f2;stroke-width:0px"
                   inkscape:connector-curvature="0" />
                <path
                   class="cls-2"
                   d="m 150.47,63.42 c 2.14,0 3.91,1.75 3.87,3.85 -0.03,2.04 -1.77,3.75 -3.78,3.74 -2.03,0 -3.8,-1.89 -3.78,-4.01 0.02,-1.95 1.7,-3.58 3.69,-3.59 v 0 z"
                   id="path4480"
                   style="fill:#f2f2f2;stroke-width:0px"
                   inkscape:connector-curvature="0" />
                <path
                   class="cls-2"
                   d="m 43.88,67.2 c -0.05,2.16 -1.69,3.84 -3.71,3.8 -2,-0.04 -3.8,-2.01 -3.74,-4.09 0.05,-1.87 1.84,-3.53 3.82,-3.53 1.98,0 3.69,1.73 3.64,3.83 v 0 z"
                   id="path4482"
                   style="fill:#f2f2f2;stroke-width:0px"
                   inkscape:connector-curvature="0" />
              </g>
            </g>
          </g>
        </g>
        <g
           id="g4508"
           style="fill:#f2f2f2">
          <path
             class="cls-2"
             d="M 92.38,68.43 V 64.36 C 92.36,52.66 92.31,40.95 92.35,29.25 92.35,27.77 91.96,27.09 90.5,26.6 80.39,23.18 78.89,9.68 84.88,3.89 c 5.24,-5.08 15.07,-5.31 20.35,0.09 5.45,5.57 5.17,14.9 -0.7,19.87 -1.38,1.17 -3.13,1.9 -4.61,2.97 -0.57,0.41 -1.26,1.17 -1.26,1.79 -0.15,12.75 -0.21,25.51 -0.27,38.26 0,0.36 0.09,0.73 0.13,1.09 0.2,0.15 0.41,0.29 0.61,0.44 0.34,-0.56 0.58,-1.2 1.02,-1.65 7.8,-7.99 15.62,-15.95 23.43,-23.92 0.23,-0.23 0.44,-0.51 0.71,-0.68 2.44,-1.49 3.39,-3.32 2.86,-6.44 -0.78,-4.58 3.8,-9.25 8.71,-9.59 5,-0.35 9.8,3.51 10.17,8.18 0.6,7.56 -5.37,12.41 -12.79,10.29 -1.34,-0.38 -2.12,-0.14 -3.04,0.79 -10.1,10.17 -20.22,20.31 -30.38,30.41 -1.03,1.03 -1.43,2.06 -1.37,3.47 0.1,2.3 0.09,4.6 0.01,6.9 -0.08,2.34 -1.1,3.33 -3.24,3.32 -1.99,0 -2.8,-0.94 -2.85,-3.38 -0.04,-1.91 -0.18,-3.83 0,-5.72 0.21,-2.24 -0.65,-3.75 -2.23,-5.3 C 80.3,65.4 70.55,55.63 60.82,45.83 59.69,44.69 58.83,44.26 57.16,44.8 52.7,46.24 47.99,44.34 45.92,40.58 c -2.44,-4.43 -1.83,-8.7 1.73,-12.01 2.74,-2.56 6.65,-3.15 10.07,-1.54 3.82,1.81 5.99,5.17 5.47,9.36 -0.27,2.15 0.35,3.48 1.82,4.93 8.51,8.41 16.92,16.92 25.38,25.38 0.5,0.5 1.06,0.93 2,1.75 v -0.02 z m 2.91,-46.77 c 3.95,0.06 7.98,-3.88 8.08,-7.92 0.1,-4.21 -3.52,-7.84 -7.89,-7.9 -4.56,-0.06 -8.06,3.26 -8.21,7.76 -0.14,4.19 3.65,7.99 8.02,8.06 z m 41.54,10.48 c -2.14,-0.1 -3.74,1.26 -3.86,3.29 -0.12,2.02 1.36,3.81 3.27,3.95 2.01,0.14 3.84,-1.47 3.96,-3.5 0.12,-2.1 -1.26,-3.64 -3.37,-3.74 z M 53.98,39.3 c 2,-0.04 3.5,-1.56 3.5,-3.52 0,-2.06 -1.75,-3.74 -3.81,-3.68 -1.96,0.06 -3.37,1.58 -3.36,3.63 0,2.01 1.66,3.62 3.67,3.57 z"
             id="path4492"
             style="fill:#f2f2f2;stroke-width:0px"
             inkscape:connector-curvature="0" />
          <g
             id="g4506"
             style="fill:#f2f2f2">
            <path
               class="cls-1"
               d="M 92.38,68.43 V 64.36 C 92.36,52.66 92.31,40.95 92.35,29.25 92.35,27.77 91.96,27.09 90.5,26.6 80.39,23.18 78.89,9.68 84.88,3.89 c 5.24,-5.08 15.07,-5.31 20.35,0.09 5.45,5.57 5.17,14.9 -0.7,19.87 -1.38,1.17 -3.13,1.9 -4.61,2.97 -0.57,0.41 -1.26,1.17 -1.26,1.79 -0.15,12.75 -0.21,25.51 -0.27,38.26 0,0.36 0.09,0.73 0.13,1.09 0.2,0.15 0.41,0.29 0.61,0.44 0.34,-0.56 0.58,-1.2 1.02,-1.65 7.8,-7.99 15.62,-15.95 23.43,-23.92 0.23,-0.23 0.44,-0.51 0.71,-0.68 2.44,-1.49 3.39,-3.32 2.86,-6.44 -0.78,-4.58 3.8,-9.25 8.71,-9.59 5,-0.35 9.8,3.51 10.17,8.18 0.6,7.56 -5.37,12.41 -12.79,10.29 -1.34,-0.38 -2.12,-0.14 -3.04,0.79 -10.1,10.17 -20.22,20.31 -30.38,30.41 -1.03,1.03 -1.43,2.06 -1.37,3.47 0.1,2.3 0.09,4.6 0.01,6.9 -0.08,2.34 -1.1,3.33 -3.24,3.32 -1.99,0 -2.8,-0.94 -2.85,-3.38 -0.04,-1.91 -0.18,-3.83 0,-5.72 0.21,-2.24 -0.65,-3.75 -2.23,-5.3 C 80.3,65.4 70.55,55.63 60.82,45.83 59.69,44.69 58.83,44.26 57.16,44.8 52.7,46.24 47.99,44.34 45.92,40.58 c -2.44,-4.43 -1.83,-8.7 1.73,-12.01 2.74,-2.56 6.65,-3.15 10.07,-1.54 3.82,1.81 5.99,5.17 5.47,9.36 -0.27,2.15 0.35,3.48 1.82,4.93 8.51,8.41 16.92,16.92 25.38,25.38 0.5,0.5 1.06,0.93 2,1.75 v -0.02 z m 2.91,-46.77 c 3.95,0.06 7.98,-3.88 8.08,-7.92 0.1,-4.21 -3.52,-7.84 -7.89,-7.9 -4.56,-0.06 -8.06,3.26 -8.21,7.76 -0.14,4.19 3.65,7.99 8.02,8.06 z m 41.54,10.48 c -2.14,-0.1 -3.74,1.26 -3.86,3.29 -0.12,2.02 1.36,3.81 3.27,3.95 2.01,0.14 3.84,-1.47 3.96,-3.5 0.12,-2.1 -1.26,-3.64 -3.37,-3.74 z M 53.98,39.3 c 2,-0.04 3.5,-1.56 3.5,-3.52 0,-2.06 -1.75,-3.74 -3.81,-3.68 -1.96,0.06 -3.37,1.58 -3.36,3.63 0,2.01 1.66,3.62 3.67,3.57 z"
               id="path4494"
               style="fill:#f2f2f2"
               inkscape:connector-curvature="0" />
            <g
               class="cls-4"
               clip-path="url(#clippath-1)"
               id="g4504"
               style="fill:#f2f2f2">
              <g
                 id="g4502"
                 style="fill:#f2f2f2">
                <path
                   class="cls-2"
                   d="m 95.29,21.66 c -4.38,-0.07 -8.16,-3.87 -8.02,-8.06 0.15,-4.51 3.66,-7.82 8.21,-7.76 4.36,0.06 7.99,3.69 7.89,7.9 -0.1,4.04 -4.12,7.98 -8.08,7.92 z"
                   id="path4496"
                   style="fill:#f2f2f2;stroke-width:0px"
                   inkscape:connector-curvature="0" />
                <path
                   class="cls-2"
                   d="m 136.83,32.14 c 2.11,0.1 3.49,1.64 3.37,3.74 -0.12,2.03 -1.95,3.64 -3.96,3.5 -1.91,-0.14 -3.39,-1.93 -3.27,-3.95 0.12,-2.03 1.72,-3.4 3.86,-3.29 z"
                   id="path4498"
                   style="fill:#f2f2f2;stroke-width:0px"
                   inkscape:connector-curvature="0" />
                <path
                   class="cls-2"
                   d="m 53.98,39.3 c -2.01,0.04 -3.66,-1.57 -3.67,-3.57 0,-2.04 1.4,-3.57 3.36,-3.63 2.06,-0.06 3.81,1.63 3.81,3.68 0,2.05 -1.5,3.47 -3.5,3.52 z"
                   id="path4500"
                   style="fill:#f2f2f2;stroke-width:0px"
                   inkscape:connector-curvature="0" />
              </g>
            </g>
          </g>
        </g>
        <g
           id="g4520"
           style="fill:#f2f2f2">
          <path
             class="cls-2"
             d="m 85.46,156.55 c -0.96,-0.83 -1.51,-1.24 -1.99,-1.72 -10.87,-10.7 -21.73,-21.4 -32.59,-32.1 -2.11,-2.08 -4.15,-4.22 -6.34,-6.21 -0.64,-0.58 -1.68,-1.01 -2.54,-1.03 -4.86,-0.11 -9.73,-0.01 -14.59,-0.12 -1.51,-0.04 -2.13,0.49 -2.67,1.87 -2.24,5.69 -7.28,8.75 -13.19,8.17 -5.72,-0.56 -10.1,-4.62 -11.29,-10.47 -1.35,-6.65 2.58,-13.2 9.03,-15.06 6.58,-1.9 13.26,1.49 15.52,8 0.44,1.27 1.09,1.52 2.29,1.51 5.65,-0.06 11.31,0.02 16.96,-0.07 1.59,-0.03 2.71,0.48 3.8,1.58 12.09,12.07 24.24,24.1 36.31,36.2 0.73,0.73 1.14,2 1.25,3.06 0.2,1.93 0.06,3.89 0.06,6.4 H 85.46 Z M 12.85,105.21 c -3.97,-0.03 -7.28,3.25 -7.28,7.21 0,3.96 3.17,7.54 6.98,7.61 4.02,0.07 7.49,-3.42 7.5,-7.53 0,-4.04 -3.18,-7.26 -7.2,-7.29 z"
             id="path4510"
             style="fill:#f2f2f2;stroke-width:0px"
             inkscape:connector-curvature="0" />
          <g
             id="g4518"
             style="fill:#f2f2f2">
            <path
               class="cls-1"
               d="m 85.46,156.55 c -0.96,-0.83 -1.51,-1.24 -1.99,-1.72 -10.87,-10.7 -21.73,-21.4 -32.59,-32.1 -2.11,-2.08 -4.15,-4.22 -6.34,-6.21 -0.64,-0.58 -1.68,-1.01 -2.54,-1.03 -4.86,-0.11 -9.73,-0.01 -14.59,-0.12 -1.51,-0.04 -2.13,0.49 -2.67,1.87 -2.24,5.69 -7.28,8.75 -13.19,8.17 -5.72,-0.56 -10.1,-4.62 -11.29,-10.47 -1.35,-6.65 2.58,-13.2 9.03,-15.06 6.58,-1.9 13.26,1.49 15.52,8 0.44,1.27 1.09,1.52 2.29,1.51 5.65,-0.06 11.31,0.02 16.96,-0.07 1.59,-0.03 2.71,0.48 3.8,1.58 12.09,12.07 24.24,24.1 36.31,36.2 0.73,0.73 1.14,2 1.25,3.06 0.2,1.93 0.06,3.89 0.06,6.4 H 85.46 Z M 12.85,105.21 c -3.97,-0.03 -7.28,3.25 -7.28,7.21 0,3.96 3.17,7.54 6.98,7.61 4.02,0.07 7.49,-3.42 7.5,-7.53 0,-4.04 -3.18,-7.26 -7.2,-7.29 z"
               id="path4512"
               style="fill:#f2f2f2"
               inkscape:connector-curvature="0" />
            <g
               class="cls-3"
               clip-path="url(#clippath-2)"
               id="g4516"
               style="fill:#f2f2f2">
              <path
                 class="cls-2"
                 d="m 12.85,105.21 c 4.02,0.03 7.21,3.25 7.2,7.29 0,4.11 -3.47,7.6 -7.5,7.53 -3.81,-0.06 -6.98,-3.52 -6.98,-7.61 0,-4.09 3.3,-7.24 7.28,-7.21 z"
                 id="path4514"
                 style="fill:#f2f2f2;stroke-width:0px"
                 inkscape:connector-curvature="0" />
            </g>
          </g>
        </g>
        <g
           id="g4532"
           style="fill:#f2f2f2">
          <path
             class="cls-2"
             d="m 105.41,155.8 c 0,-2.35 -0.12,-4.72 0.06,-7.05 0.06,-0.78 0.75,-1.63 1.36,-2.24 7.23,-7.18 14.51,-14.31 21.74,-21.47 4.81,-4.76 9.53,-9.61 14.4,-14.3 0.79,-0.76 2.14,-1.29 3.25,-1.32 5.65,-0.13 11.31,-0.09 16.96,-0.03 1.23,0.01 1.81,-0.35 2.26,-1.56 2.52,-6.8 9.85,-10.13 16.52,-7.63 6.79,2.54 9.99,10.04 7.35,17.26 -2.4,6.56 -9.56,9.91 -16.26,7.44 -3.76,-1.39 -6.39,-4.13 -7.73,-7.92 -0.43,-1.22 -1.01,-1.56 -2.25,-1.55 -4.86,0.07 -9.73,-0.04 -14.59,0.07 -0.98,0.02 -2.19,0.52 -2.88,1.2 -12.58,12.41 -25.09,24.89 -37.6,37.36 -0.68,0.68 -1.22,1.51 -1.83,2.27 -0.25,-0.17 -0.5,-0.35 -0.76,-0.52 v 0 z m 72.15,-50.61 c -4.01,-0.04 -7.41,3.23 -7.4,7.14 0,4.25 3.14,7.61 7.12,7.64 3.97,0.03 7.32,-3.23 7.39,-7.19 0.08,-4.28 -2.99,-7.55 -7.1,-7.59 v 0 z"
             id="path4522"
             style="fill:#f2f2f2;stroke-width:0px"
             inkscape:connector-curvature="0" />
          <g
             id="g4530"
             style="fill:#f2f2f2">
            <path
               class="cls-1"
               d="m 105.41,155.8 c 0,-2.35 -0.12,-4.72 0.06,-7.05 0.06,-0.78 0.75,-1.63 1.36,-2.24 7.23,-7.18 14.51,-14.31 21.74,-21.47 4.81,-4.76 9.53,-9.61 14.4,-14.3 0.79,-0.76 2.14,-1.29 3.25,-1.32 5.65,-0.13 11.31,-0.09 16.96,-0.03 1.23,0.01 1.81,-0.35 2.26,-1.56 2.52,-6.8 9.85,-10.13 16.52,-7.63 6.79,2.54 9.99,10.04 7.35,17.26 -2.4,6.56 -9.56,9.91 -16.26,7.44 -3.76,-1.39 -6.39,-4.13 -7.73,-7.92 -0.43,-1.22 -1.01,-1.56 -2.25,-1.55 -4.86,0.07 -9.73,-0.04 -14.59,0.07 -0.98,0.02 -2.19,0.52 -2.88,1.2 -12.58,12.41 -25.09,24.89 -37.6,37.36 -0.68,0.68 -1.22,1.51 -1.83,2.27 -0.25,-0.17 -0.5,-0.35 -0.76,-0.52 v 0 z m 72.15,-50.61 c -4.01,-0.04 -7.41,3.23 -7.4,7.14 0,4.25 3.14,7.61 7.12,7.64 3.97,0.03 7.32,-3.23 7.39,-7.19 0.08,-4.28 -2.99,-7.55 -7.1,-7.59 v 0 z"
               id="path4524"
               style="fill:#f2f2f2"
               inkscape:connector-curvature="0" />
            <g
               class="cls-7"
               clip-path="url(#clippath-3)"
               id="g4528"
               style="fill:#f2f2f2">
              <path
                 class="cls-2"
                 d="m 177.56,105.19 c 4.11,0.04 7.18,3.31 7.1,7.59 -0.07,3.97 -3.41,7.22 -7.39,7.19 -3.98,-0.03 -7.11,-3.39 -7.12,-7.64 0,-3.91 3.39,-7.18 7.4,-7.14 v 0 z"
                 id="path4526"
                 style="fill:#f2f2f2;stroke-width:0px"
                 inkscape:connector-curvature="0" />
            </g>
          </g>
        </g>
        <g
           id="g4544"
           style="fill:#f2f2f2">
          <path
             class="cls-2"
             d="m 125.03,153.32 c -4.39,4.28 -8.73,8.47 -12.99,12.74 -0.42,0.42 -0.51,1.32 -0.51,1.99 -0.03,9.59 -0.02,19.18 -0.02,28.77 0,0.72 0.05,1.45 -0.03,2.17 -0.21,1.99 -1.57,3.19 -3.4,3.06 -1.72,-0.12 -2.63,-1.17 -2.64,-3.25 -0.04,-7.56 -0.03,-15.11 -0.04,-22.67 0,-3.55 -0.07,-7.1 -0.03,-10.64 0,-0.73 0.17,-1.65 0.63,-2.14 5.97,-6.38 12,-12.69 18.22,-19.25 6.82,6.63 12.95,12.6 19.04,18.52 1.17,-0.74 2.04,-1.46 3.04,-1.91 3.52,-1.59 7.26,-0.87 9.99,1.83 2.8,2.77 3.68,6.96 2.21,10.55 -1.45,3.56 -4.54,5.57 -8.49,5.53 -5.79,-0.06 -9.23,-3.42 -9.53,-9.22 -0.03,-0.59 -0.26,-1.32 -0.66,-1.72 -4.8,-4.77 -9.65,-9.48 -14.49,-14.2 -0.13,-0.13 -0.33,-0.18 -0.3,-0.17 v 0 z m 25.16,12.36 c -2.13,0 -3.84,1.56 -3.89,3.58 -0.06,2.31 1.59,4.13 3.77,4.16 2.05,0.03 3.88,-1.76 3.94,-3.84 0.06,-2.11 -1.68,-3.89 -3.82,-3.9 z"
             id="path4534"
             style="fill:#f2f2f2;stroke-width:0px"
             inkscape:connector-curvature="0" />
          <g
             id="g4542"
             style="fill:#f2f2f2">
            <path
               class="cls-1"
               d="m 125.03,153.32 c -4.39,4.28 -8.73,8.47 -12.99,12.74 -0.42,0.42 -0.51,1.32 -0.51,1.99 -0.03,9.59 -0.02,19.18 -0.02,28.77 0,0.72 0.05,1.45 -0.03,2.17 -0.21,1.99 -1.57,3.19 -3.4,3.06 -1.72,-0.12 -2.63,-1.17 -2.64,-3.25 -0.04,-7.56 -0.03,-15.11 -0.04,-22.67 0,-3.55 -0.07,-7.1 -0.03,-10.64 0,-0.73 0.17,-1.65 0.63,-2.14 5.97,-6.38 12,-12.69 18.22,-19.25 6.82,6.63 12.95,12.6 19.04,18.52 1.17,-0.74 2.04,-1.46 3.04,-1.91 3.52,-1.59 7.26,-0.87 9.99,1.83 2.8,2.77 3.68,6.96 2.21,10.55 -1.45,3.56 -4.54,5.57 -8.49,5.53 -5.79,-0.06 -9.23,-3.42 -9.53,-9.22 -0.03,-0.59 -0.26,-1.32 -0.66,-1.72 -4.8,-4.77 -9.65,-9.48 -14.49,-14.2 -0.13,-0.13 -0.33,-0.18 -0.3,-0.17 v 0 z m 25.16,12.36 c -2.13,0 -3.84,1.56 -3.89,3.58 -0.06,2.31 1.59,4.13 3.77,4.16 2.05,0.03 3.88,-1.76 3.94,-3.84 0.06,-2.11 -1.68,-3.89 -3.82,-3.9 z"
               id="path4536"
               style="fill:#f2f2f2"
               inkscape:connector-curvature="0" />
            <g
               class="cls-5"
               clip-path="url(#clippath-4)"
               id="g4540"
               style="fill:#f2f2f2">
              <path
                 class="cls-2"
                 d="m 150.19,165.68 c 2.14,0 3.88,1.79 3.82,3.9 -0.06,2.08 -1.89,3.87 -3.94,3.84 -2.18,-0.03 -3.83,-1.84 -3.77,-4.16 0.05,-2.02 1.76,-3.6 3.89,-3.58 z"
                 id="path4538"
                 style="fill:#f2f2f2;stroke-width:0px"
                 inkscape:connector-curvature="0" />
            </g>
          </g>
        </g>
        <g
           id="g4556"
           style="fill:#f2f2f2">
          <path
             class="cls-2"
             d="m 66.29,153.39 c -5.38,5.13 -10.37,9.87 -15.31,14.66 -0.4,0.39 -0.52,1.16 -0.62,1.78 -0.95,5.8 -5.08,9.24 -10.66,8.83 -4.46,-0.33 -8.14,-4.13 -8.43,-8.69 -0.28,-4.52 2.93,-8.88 7.25,-9.74 3.23,-0.65 6.14,-0.02 8.57,2.62 1.78,-1.72 3.47,-3.34 5.15,-4.97 4.01,-3.89 8.03,-7.76 12,-11.69 0.98,-0.97 1.7,-1.16 2.75,-0.09 5.69,5.74 11.46,11.41 17.12,17.18 0.6,0.61 1.01,1.7 1.02,2.57 0.08,10.91 0.08,21.83 0.07,32.74 0,2.39 -0.98,3.4 -3.09,3.37 -1.85,-0.03 -2.7,-1.07 -2.7,-3.33 -0.01,-9.86 -0.05,-19.73 0,-29.59 0,-1.49 -0.4,-2.57 -1.47,-3.64 -4.07,-4.08 -8.05,-8.26 -11.67,-12.01 z m -21.91,16.03 c 0.03,-2.1 -1.54,-3.69 -3.69,-3.75 -2.08,-0.06 -3.67,1.54 -3.69,3.73 -0.03,2.29 1.38,3.93 3.42,3.98 2.23,0.06 3.93,-1.63 3.96,-3.96 z"
             id="path4546"
             style="fill:#f2f2f2;stroke-width:0px"
             inkscape:connector-curvature="0" />
          <g
             id="g4554"
             style="fill:#f2f2f2">
            <path
               class="cls-1"
               d="m 66.29,153.39 c -5.38,5.13 -10.37,9.87 -15.31,14.66 -0.4,0.39 -0.52,1.16 -0.62,1.78 -0.95,5.8 -5.08,9.24 -10.66,8.83 -4.46,-0.33 -8.14,-4.13 -8.43,-8.69 -0.28,-4.52 2.93,-8.88 7.25,-9.74 3.23,-0.65 6.14,-0.02 8.57,2.62 1.78,-1.72 3.47,-3.34 5.15,-4.97 4.01,-3.89 8.03,-7.76 12,-11.69 0.98,-0.97 1.7,-1.16 2.75,-0.09 5.69,5.74 11.46,11.41 17.12,17.18 0.6,0.61 1.01,1.7 1.02,2.57 0.08,10.91 0.08,21.83 0.07,32.74 0,2.39 -0.98,3.4 -3.09,3.37 -1.85,-0.03 -2.7,-1.07 -2.7,-3.33 -0.01,-9.86 -0.05,-19.73 0,-29.59 0,-1.49 -0.4,-2.57 -1.47,-3.64 -4.07,-4.08 -8.05,-8.26 -11.67,-12.01 z m -21.91,16.03 c 0.03,-2.1 -1.54,-3.69 -3.69,-3.75 -2.08,-0.06 -3.67,1.54 -3.69,3.73 -0.03,2.29 1.38,3.93 3.42,3.98 2.23,0.06 3.93,-1.63 3.96,-3.96 z"
               id="path4548"
               style="fill:#f2f2f2"
               inkscape:connector-curvature="0" />
            <g
               class="cls-8"
               clip-path="url(#clippath-5)"
               id="g4552"
               style="fill:#f2f2f2">
              <path
                 class="cls-2"
                 d="m 44.38,169.42 c -0.03,2.32 -1.72,4.01 -3.96,3.96 -2.04,-0.05 -3.45,-1.69 -3.42,-3.98 0.03,-2.18 1.61,-3.78 3.69,-3.73 2.15,0.06 3.72,1.65 3.69,3.75 z"
                 id="path4550"
                 style="fill:#f2f2f2;stroke-width:0px"
                 inkscape:connector-curvature="0" />
            </g>
          </g>
        </g>
      </g>
    </g>
  </g>
</svg>
