<?xml version="1.0" encoding="UTF-8"?>
<svg id="Layer_2" data-name="Layer 2" xmlns="http://www.w3.org/2000/svg" xmlns:xlink="http://www.w3.org/1999/xlink" viewBox="0 0 753.04 202.15">
  <defs>
    <style>
      .cls-1, .cls-2 {
        fill: #fff;
      }

      .cls-3 {
        clip-path: url(#clippath-2);
      }

      .cls-4 {
        clip-path: url(#clippath-1);
      }

      .cls-5 {
        clip-path: url(#clippath-4);
      }

      .cls-2 {
        stroke-width: 0px;
      }

      .cls-6 {
        clip-path: url(#clippath);
      }

      .cls-7 {
        clip-path: url(#clippath-3);
      }

      .cls-8 {
        clip-path: url(#clippath-5);
      }
    </style>
    <clipPath id="clippath">
      <path class="cls-2" d="M80.61,104.32c6.88-10.76,22.37-10.8,29.38.02.58-.53,1.16-1,1.68-1.53,9.75-9.86,19.47-19.74,29.26-29.55.89-.89.82-1.52.45-2.54-1.55-4.21-.38-8.78,2.74-11.09,3.67-2.71,8.62-2.84,12.17-.33,3.57,2.53,4.78,7.49,2.91,11.86-1.73,4.04-6.06,6.41-10.48,5.49-1.43-.3-2.36,0-3.32.97-10.57,10.62-21.15,21.23-31.74,31.83-.99.99-1.39,2.04-1.36,3.49.14,8.6-4.1,14.55-12.29,17.1-1.63.51-1.54,1.45-1.54,2.65-.06,21.5-.13,43-.2,64.49,0,.79,0,1.58-.04,2.37-.1,1.8-1.29,2.57-2.88,2.6-1.64.04-2.77-.85-2.9-2.58-.1-1.31-.02-2.63-.02-3.94,0-21.04,0-42.08.05-63.11,0-1.54-.51-2.12-1.93-2.58-8.2-2.65-12.42-8.72-12.32-17.38,0-.76-.25-1.74-.76-2.26-10.87-11.07-21.78-22.1-32.72-33.09-.44-.44-1.4-.65-2.05-.56-7.57,1.09-12.61-3.6-11.91-11.16.42-4.53,4.66-8.04,9.66-7.99,4.79.04,9.05,3.75,9.26,8.22.07,1.55-.04,3.2-.53,4.65-.47,1.39-.12,2.17.8,3.08,9.03,9,18.04,18.02,27.04,27.05,1.2,1.2,2.33,2.47,3.61,3.82h-.02ZM106.63,113.6c0-6.64-4.79-11.47-11.37-11.48-6.41,0-11.24,4.82-11.2,11.2.04,6.34,5.33,11.78,11.42,11.74,6-.05,11.16-5.34,11.16-11.46h0ZM150.47,63.42c-1.99,0-3.67,1.64-3.69,3.59-.02,2.12,1.75,4,3.78,4.01,2.02,0,3.75-1.71,3.78-3.74.03-2.1-1.74-3.86-3.87-3.85h0ZM43.88,67.2c.05-2.1-1.6-3.83-3.64-3.83s-3.77,1.66-3.82,3.53c-.05,2.09,1.74,4.05,3.74,4.09,2.02.04,3.66-1.63,3.71-3.8h0Z"/>
    </clipPath>
    <clipPath id="clippath-1">
      <path class="cls-2" d="M92.38,68.43v-4.07c-.02-11.7-.07-23.41-.03-35.11,0-1.48-.39-2.16-1.85-2.65-10.11-3.42-11.61-16.92-5.62-22.71,5.24-5.08,15.07-5.31,20.35.09,5.45,5.57,5.17,14.9-.7,19.87-1.38,1.17-3.13,1.9-4.61,2.97-.57.41-1.26,1.17-1.26,1.79-.15,12.75-.21,25.51-.27,38.26,0,.36.09.73.13,1.09.2.15.41.29.61.44.34-.56.58-1.2,1.02-1.65,7.8-7.99,15.62-15.95,23.43-23.92.23-.23.44-.51.71-.68,2.44-1.49,3.39-3.32,2.86-6.44-.78-4.58,3.8-9.25,8.71-9.59,5-.35,9.8,3.51,10.17,8.18.6,7.56-5.37,12.41-12.79,10.29-1.34-.38-2.12-.14-3.04.79-10.1,10.17-20.22,20.31-30.38,30.41-1.03,1.03-1.43,2.06-1.37,3.47.1,2.3.09,4.6.01,6.9-.08,2.34-1.1,3.33-3.24,3.32-1.99,0-2.8-.94-2.85-3.38-.04-1.91-.18-3.83,0-5.72.21-2.24-.65-3.75-2.23-5.3-9.84-9.68-19.59-19.45-29.32-29.25-1.13-1.14-1.99-1.57-3.66-1.03-4.46,1.44-9.17-.46-11.24-4.22-2.44-4.43-1.83-8.7,1.73-12.01,2.74-2.56,6.65-3.15,10.07-1.54,3.82,1.81,5.99,5.17,5.47,9.36-.27,2.15.35,3.48,1.82,4.93,8.51,8.41,16.92,16.92,25.38,25.38.5.5,1.06.93,2,1.75v-.02ZM95.29,21.66c3.95.06,7.98-3.88,8.08-7.92.1-4.21-3.52-7.84-7.89-7.9-4.56-.06-8.06,3.26-8.21,7.76-.14,4.19,3.65,7.99,8.02,8.06ZM136.83,32.14c-2.14-.1-3.74,1.26-3.86,3.29-.12,2.02,1.36,3.81,3.27,3.95,2.01.14,3.84-1.47,3.96-3.5.12-2.1-1.26-3.64-3.37-3.74h0ZM53.98,39.3c2-.04,3.5-1.56,3.5-3.52,0-2.06-1.75-3.74-3.81-3.68-1.96.06-3.37,1.58-3.36,3.63,0,2.01,1.66,3.62,3.67,3.57Z"/>
    </clipPath>
    <clipPath id="clippath-2">
      <path class="cls-2" d="M85.46,156.55c-.96-.83-1.51-1.24-1.99-1.72-10.87-10.7-21.73-21.4-32.59-32.1-2.11-2.08-4.15-4.22-6.34-6.21-.64-.58-1.68-1.01-2.54-1.03-4.86-.11-9.73-.01-14.59-.12-1.51-.04-2.13.49-2.67,1.87-2.24,5.69-7.28,8.75-13.19,8.17-5.72-.56-10.1-4.62-11.29-10.47-1.35-6.65,2.58-13.2,9.03-15.06,6.58-1.9,13.26,1.49,15.52,8,.44,1.27,1.09,1.52,2.29,1.51,5.65-.06,11.31.02,16.96-.07,1.59-.03,2.71.48,3.8,1.58,12.09,12.07,24.24,24.1,36.31,36.2.73.73,1.14,2,1.25,3.06.2,1.93.06,3.89.06,6.4h-.02ZM12.85,105.21c-3.97-.03-7.28,3.25-7.28,7.21s3.17,7.54,6.98,7.61c4.02.07,7.49-3.42,7.5-7.53,0-4.04-3.18-7.26-7.2-7.29Z"/>
    </clipPath>
    <clipPath id="clippath-3">
      <path class="cls-2" d="M105.41,155.8c0-2.35-.12-4.72.06-7.05.06-.78.75-1.63,1.36-2.24,7.23-7.18,14.51-14.31,21.74-21.47,4.81-4.76,9.53-9.61,14.4-14.3.79-.76,2.14-1.29,3.25-1.32,5.65-.13,11.31-.09,16.96-.03,1.23.01,1.81-.35,2.26-1.56,2.52-6.8,9.85-10.13,16.52-7.63,6.79,2.54,9.99,10.04,7.35,17.26-2.4,6.56-9.56,9.91-16.26,7.44-3.76-1.39-6.39-4.13-7.73-7.92-.43-1.22-1.01-1.56-2.25-1.55-4.86.07-9.73-.04-14.59.07-.98.02-2.19.52-2.88,1.2-12.58,12.41-25.09,24.89-37.6,37.36-.68.68-1.22,1.51-1.83,2.27-.25-.17-.5-.35-.76-.52h0ZM177.56,105.19c-4.01-.04-7.41,3.23-7.4,7.14,0,4.25,3.14,7.61,7.12,7.64,3.97.03,7.32-3.23,7.39-7.19.08-4.28-2.99-7.55-7.1-7.59h0Z"/>
    </clipPath>
    <clipPath id="clippath-4">
      <path class="cls-2" d="M125.03,153.32c-4.39,4.28-8.73,8.47-12.99,12.74-.42.42-.51,1.32-.51,1.99-.03,9.59-.02,19.18-.02,28.77,0,.72.05,1.45-.03,2.17-.21,1.99-1.57,3.19-3.4,3.06-1.72-.12-2.63-1.17-2.64-3.25-.04-7.56-.03-15.11-.04-22.67,0-3.55-.07-7.1-.03-10.64,0-.73.17-1.65.63-2.14,5.97-6.38,12-12.69,18.22-19.25,6.82,6.63,12.95,12.6,19.04,18.52,1.17-.74,2.04-1.46,3.04-1.91,3.52-1.59,7.26-.87,9.99,1.83,2.8,2.77,3.68,6.96,2.21,10.55-1.45,3.56-4.54,5.57-8.49,5.53-5.79-.06-9.23-3.42-9.53-9.22-.03-.59-.26-1.32-.66-1.72-4.8-4.77-9.65-9.48-14.49-14.2-.13-.13-.33-.18-.3-.17h0ZM150.19,165.68c-2.13,0-3.84,1.56-3.89,3.58-.06,2.31,1.59,4.13,3.77,4.16,2.05.03,3.88-1.76,3.94-3.84.06-2.11-1.68-3.89-3.82-3.9h0Z"/>
    </clipPath>
    <clipPath id="clippath-5">
      <path class="cls-2" d="M66.29,153.39c-5.38,5.13-10.37,9.87-15.31,14.66-.4.39-.52,1.16-.62,1.78-.95,5.8-5.08,9.24-10.66,8.83-4.46-.33-8.14-4.13-8.43-8.69-.28-4.52,2.93-8.88,7.25-9.74,3.23-.65,6.14-.02,8.57,2.62,1.78-1.72,3.47-3.34,5.15-4.97,4.01-3.89,8.03-7.76,12-11.69.98-.97,1.7-1.16,2.75-.09,5.69,5.74,11.46,11.41,17.12,17.18.6.61,1.01,1.7,1.02,2.57.08,10.91.08,21.83.07,32.74,0,2.39-.98,3.4-3.09,3.37-1.85-.03-2.7-1.07-2.7-3.33-.01-9.86-.05-19.73,0-29.59,0-1.49-.4-2.57-1.47-3.64-4.07-4.08-8.05-8.26-11.67-12.01h.02ZM44.38,169.42c.03-2.1-1.54-3.69-3.69-3.75-2.08-.06-3.67,1.54-3.69,3.73-.03,2.29,1.38,3.93,3.42,3.98,2.23.06,3.93-1.63,3.96-3.96h0Z"/>
    </clipPath>
  </defs>
  <g id="Layer_1-2" data-name="Layer 1">
    <g>
      <path class="cls-2" d="M239.98,133.58v-27.25l-21.84-37.79h14.97l15.87,27.46,16.55-27.46h10.71l-22.72,37.7v27.33h-13.54Z"/>
      <path class="cls-2" d="M286.3,133.58v-65.04h22.36c6.5,0,11.07.68,13.72,2.04,2.64,1.36,4.64,3.29,5.98,5.78,1.34,2.49,2.02,5.62,2.02,9.4,0,7.27-2.29,12.8-6.87,16.61-4.58,3.81-10.72,5.71-18.42,5.71h-5.52v25.49h-13.27ZM299.57,99.17h2.54c4.98,0,8.63-1.19,10.96-3.58s3.5-5.19,3.5-8.42c0-1.82-.37-3.46-1.1-4.94-.74-1.48-1.87-2.64-3.41-3.49-1.54-.85-4.01-1.27-7.4-1.27h-5.09v21.71Z"/>
      <path class="cls-2" d="M341.49,133.58v-65.04h11.93l30.08,44.43v-44.43h10.85v65.04h-12.14l-29.87-44.43v44.43h-10.85Z"/>
      <path class="cls-2" d="M491.35,132.04c-5.8,1.49-10.03,2.4-12.68,2.7-2.65.31-5.46.46-8.42.46-12.19,0-21.05-3.23-26.59-9.69-5.54-6.46-8.31-14.64-8.31-24.54,0-6.47,1.22-12.3,3.65-17.47,2.43-5.17,6.12-9.23,11.05-12.17,4.94-2.95,11.62-4.42,20.06-4.42,7.12,0,14.18.83,21.18,2.5v10.59c-5.89-2.02-10.12-3.22-12.7-3.6s-5.04-.57-7.38-.57c-7.62,0-13.1,2.46-16.46,7.38s-5.03,10.88-5.03,17.89c0,7.65,1.98,13.73,5.93,18.24s9.52,6.77,16.7,6.77c1.55,0,3.37-.22,5.45-.66v-21.4h13.54v27.99Z"/>
      <path class="cls-2" d="M506.51,133.58v-65.04h24.35c4.98,0,8.77.62,11.38,1.87,2.61,1.25,4.67,3.14,6.17,5.67s2.26,5.4,2.26,8.59c0,3.81-1.1,7.41-3.3,10.79-2.2,3.38-5.3,5.97-9.32,7.76l21.29,30.37h-16.49l-16.17-26.59h-7.44v26.59h-12.74ZM519.25,98.07h3.11c5.59,0,9.45-1.22,11.58-3.65,2.13-2.43,3.2-5.19,3.2-8.26,0-2.67-.87-4.78-2.6-6.35-1.73-1.57-5.26-2.35-10.57-2.35h-4.71v20.61Z"/>
      <path class="cls-2" d="M597.56,135.2c-6.77,0-12.66-1.4-17.67-4.2-5.01-2.8-8.82-6.83-11.43-12.09-2.61-5.26-3.91-11.21-3.91-17.86s1.3-12.57,3.91-17.84,6.43-9.31,11.47-12.11c5.04-2.8,10.91-4.2,17.62-4.2s12.54,1.4,17.58,4.2c5.04,2.8,8.86,6.83,11.47,12.11s3.91,11.22,3.91,17.84-1.3,12.6-3.91,17.86c-2.61,5.26-6.41,9.29-11.4,12.09-5,2.8-10.88,4.2-17.64,4.2ZM597.56,126.28c6.27,0,10.93-2.56,14-7.67s4.59-10.97,4.59-17.57-1.54-12.48-4.61-17.57c-3.08-5.09-7.73-7.63-13.97-7.63s-10.94,2.54-14.02,7.63c-3.08,5.09-4.61,10.94-4.61,17.57s1.53,12.45,4.59,17.57,7.74,7.67,14.04,7.67Z"/>
      <path class="cls-2" d="M642.17,68.54h13.54v39.89c0,7.21,1.22,11.99,3.67,14.34s5.62,3.52,9.51,3.52,6.89-1.16,9.16-3.47c2.27-2.32,3.41-6.79,3.41-13.41v-40.86h11.78v39.95c0,7.53-.94,12.93-2.83,16.19-1.89,3.27-4.62,5.84-8.2,7.71s-8.1,2.81-13.58,2.81-10.02-.87-13.89-2.61c-3.87-1.74-6.93-4.34-9.18-7.78-2.26-3.44-3.38-8.93-3.38-16.46v-39.81Z"/>
      <path class="cls-2" d="M708.96,133.58v-65.04h22.36c6.5,0,11.07.68,13.72,2.04,2.64,1.36,4.64,3.29,5.98,5.78s2.02,5.62,2.02,9.4c0,7.27-2.29,12.8-6.87,16.61-4.58,3.81-10.72,5.71-18.42,5.71h-5.51v25.49h-13.27ZM722.23,99.17h2.54c4.98,0,8.63-1.19,10.96-3.58,2.33-2.39,3.5-5.19,3.5-8.42,0-1.82-.37-3.46-1.1-4.94-.74-1.48-1.87-2.64-3.41-3.49s-4.01-1.27-7.4-1.27h-5.09v21.71Z"/>
    </g>
    <g id="Layer_1-2" data-name="Layer 1-2">
      <g>
        <path class="cls-2" d="M67.57,112.41c.04,2.71-1.83,4.62-4.53,4.61-2.52,0-4.45-1.83-4.51-4.26-.06-2.42,2.03-4.61,4.41-4.65,2.68-.04,4.6,1.74,4.64,4.29h-.01Z"/>
        <path class="cls-2" d="M73.44,77.39c-.03,2.68-1.89,4.36-4.78,4.31-2.37-.04-4.25-1.91-4.27-4.25-.02-2.55,2.07-4.61,4.64-4.56,2.64.05,4.44,1.88,4.41,4.5Z"/>
        <path class="cls-2" d="M165.87,92.2c-2.53-.02-4.48-1.98-4.5-4.52-.02-2.32,2.22-4.43,4.66-4.39,2.59.04,4.35,1.82,4.31,4.38-.04,2.6-1.96,4.55-4.47,4.53Z"/>
        <path class="cls-2" d="M121.86,72.87c2.52.03,4.35,1.99,4.32,4.62-.02,2.43-1.97,4.36-4.39,4.38-2.55.02-4.51-1.97-4.46-4.49.06-2.5,2.1-4.54,4.53-4.51Z"/>
        <path class="cls-2" d="M115.62,23.87c0-2.49,1.74-4.27,4.16-4.29,2.62-.02,4.82,2.03,4.8,4.46-.02,2.42-2.16,4.5-4.6,4.46-2.46-.04-4.37-2.06-4.36-4.63Z"/>
        <path class="cls-2" d="M160.86,139.24c2.48.03,4.35,1.88,4.36,4.34,0,2.41-2.07,4.36-4.61,4.33-2.56-.03-4.39-1.96-4.33-4.56.05-2.38,2.01-4.13,4.58-4.11Z"/>
        <path class="cls-2" d="M127.54,117.03c-2.38-.03-4.33-2.05-4.32-4.47.02-2.31,2.14-4.4,4.46-4.39,2.39,0,4.42,2.04,4.41,4.39-.02,2.5-2.06,4.5-4.55,4.47Z"/>
        <path class="cls-2" d="M70.76,28.44c-2.42.04-4.42-2.03-4.41-4.57,0-2.26,1.95-4.2,4.29-4.27,2.54-.08,4.61,1.85,4.63,4.33.02,2.42-2.04,4.48-4.51,4.52h0Z"/>
        <path class="cls-2" d="M29.74,147.96c-2.43-.02-4.34-1.83-4.37-4.14-.04-2.53,1.93-4.55,4.41-4.54,2.53,0,4.37,1.85,4.36,4.36,0,2.49-1.89,4.35-4.39,4.32h-.01Z"/>
        <g>
          <path class="cls-2" d="M80.61,104.32c6.88-10.76,22.37-10.8,29.38.02.58-.53,1.16-1,1.68-1.53,9.75-9.86,19.47-19.74,29.26-29.55.89-.89.82-1.52.45-2.54-1.55-4.21-.38-8.78,2.74-11.09,3.67-2.71,8.62-2.84,12.17-.33,3.57,2.53,4.78,7.49,2.91,11.86-1.73,4.04-6.06,6.41-10.48,5.49-1.43-.3-2.36,0-3.32.97-10.57,10.62-21.15,21.23-31.74,31.83-.99.99-1.39,2.04-1.36,3.49.14,8.6-4.1,14.55-12.29,17.1-1.63.51-1.54,1.45-1.54,2.65-.06,21.5-.13,43-.2,64.49,0,.79,0,1.58-.04,2.37-.1,1.8-1.29,2.57-2.88,2.6-1.64.04-2.77-.85-2.9-2.58-.1-1.31-.02-2.63-.02-3.94,0-21.04,0-42.08.05-63.11,0-1.54-.51-2.12-1.93-2.58-8.2-2.65-12.42-8.72-12.32-17.38,0-.76-.25-1.74-.76-2.26-10.87-11.07-21.78-22.1-32.72-33.09-.44-.44-1.4-.65-2.05-.56-7.57,1.09-12.61-3.6-11.91-11.16.42-4.53,4.66-8.04,9.66-7.99,4.79.04,9.05,3.75,9.26,8.22.07,1.55-.04,3.2-.53,4.65-.47,1.39-.12,2.17.8,3.08,9.03,9,18.04,18.02,27.04,27.05,1.2,1.2,2.33,2.47,3.61,3.82h-.02ZM106.63,113.6c0-6.64-4.79-11.47-11.37-11.48-6.41,0-11.24,4.82-11.2,11.2.04,6.34,5.33,11.78,11.42,11.74,6-.05,11.16-5.34,11.16-11.46h0ZM150.47,63.42c-1.99,0-3.67,1.64-3.69,3.59-.02,2.12,1.75,4,3.78,4.01,2.02,0,3.75-1.71,3.78-3.74.03-2.1-1.74-3.86-3.87-3.85h0ZM43.88,67.2c.05-2.1-1.6-3.83-3.64-3.83s-3.77,1.66-3.82,3.53c-.05,2.09,1.74,4.05,3.74,4.09,2.02.04,3.66-1.63,3.71-3.8h0Z"/>
          <g>
            <path class="cls-1" d="M80.61,104.32c6.88-10.76,22.37-10.8,29.38.02.58-.53,1.16-1,1.68-1.53,9.75-9.86,19.47-19.74,29.26-29.55.89-.89.82-1.52.45-2.54-1.55-4.21-.38-8.78,2.74-11.09,3.67-2.71,8.62-2.84,12.17-.33,3.57,2.53,4.78,7.49,2.91,11.86-1.73,4.04-6.06,6.41-10.48,5.49-1.43-.3-2.36,0-3.32.97-10.57,10.62-21.15,21.23-31.74,31.83-.99.99-1.39,2.04-1.36,3.49.14,8.6-4.1,14.55-12.29,17.1-1.63.51-1.54,1.45-1.54,2.65-.06,21.5-.13,43-.2,64.49,0,.79,0,1.58-.04,2.37-.1,1.8-1.29,2.57-2.88,2.6-1.64.04-2.77-.85-2.9-2.58-.1-1.31-.02-2.63-.02-3.94,0-21.04,0-42.08.05-63.11,0-1.54-.51-2.12-1.93-2.58-8.2-2.65-12.42-8.72-12.32-17.38,0-.76-.25-1.74-.76-2.26-10.87-11.07-21.78-22.1-32.72-33.09-.44-.44-1.4-.65-2.05-.56-7.57,1.09-12.61-3.6-11.91-11.16.42-4.53,4.66-8.04,9.66-7.99,4.79.04,9.05,3.75,9.26,8.22.07,1.55-.04,3.2-.53,4.65-.47,1.39-.12,2.17.8,3.08,9.03,9,18.04,18.02,27.04,27.05,1.2,1.2,2.33,2.47,3.61,3.82h-.02ZM106.63,113.6c0-6.64-4.79-11.47-11.37-11.48-6.41,0-11.24,4.82-11.2,11.2.04,6.34,5.33,11.78,11.42,11.74,6-.05,11.16-5.34,11.16-11.46h0ZM150.47,63.42c-1.99,0-3.67,1.64-3.69,3.59-.02,2.12,1.75,4,3.78,4.01,2.02,0,3.75-1.71,3.78-3.74.03-2.1-1.74-3.86-3.87-3.85h0ZM43.88,67.2c.05-2.1-1.6-3.83-3.64-3.83s-3.77,1.66-3.82,3.53c-.05,2.09,1.74,4.05,3.74,4.09,2.02.04,3.66-1.63,3.71-3.8h0Z"/>
            <g class="cls-6">
              <g>
                <path class="cls-2" d="M106.63,113.6c0,6.12-5.16,11.41-11.16,11.46-6.08.05-11.38-5.4-11.42-11.74-.04-6.38,4.79-11.21,11.2-11.2,6.59,0,11.37,4.84,11.37,11.48h.01Z"/>
                <path class="cls-2" d="M150.47,63.42c2.14,0,3.91,1.75,3.87,3.85-.03,2.04-1.77,3.75-3.78,3.74-2.03,0-3.8-1.89-3.78-4.01.02-1.95,1.7-3.58,3.69-3.59h0Z"/>
                <path class="cls-2" d="M43.88,67.2c-.05,2.16-1.69,3.84-3.71,3.8-2-.04-3.8-2.01-3.74-4.09.05-1.87,1.84-3.53,3.82-3.53s3.69,1.73,3.64,3.83h0Z"/>
              </g>
            </g>
          </g>
        </g>
        <g>
          <path class="cls-2" d="M92.38,68.43v-4.07c-.02-11.7-.07-23.41-.03-35.11,0-1.48-.39-2.16-1.85-2.65-10.11-3.42-11.61-16.92-5.62-22.71,5.24-5.08,15.07-5.31,20.35.09,5.45,5.57,5.17,14.9-.7,19.87-1.38,1.17-3.13,1.9-4.61,2.97-.57.41-1.26,1.17-1.26,1.79-.15,12.75-.21,25.51-.27,38.26,0,.36.09.73.13,1.09.2.15.41.29.61.44.34-.56.58-1.2,1.02-1.65,7.8-7.99,15.62-15.95,23.43-23.92.23-.23.44-.51.71-.68,2.44-1.49,3.39-3.32,2.86-6.44-.78-4.58,3.8-9.25,8.71-9.59,5-.35,9.8,3.51,10.17,8.18.6,7.56-5.37,12.41-12.79,10.29-1.34-.38-2.12-.14-3.04.79-10.1,10.17-20.22,20.31-30.38,30.41-1.03,1.03-1.43,2.06-1.37,3.47.1,2.3.09,4.6.01,6.9-.08,2.34-1.1,3.33-3.24,3.32-1.99,0-2.8-.94-2.85-3.38-.04-1.91-.18-3.83,0-5.72.21-2.24-.65-3.75-2.23-5.3-9.84-9.68-19.59-19.45-29.32-29.25-1.13-1.14-1.99-1.57-3.66-1.03-4.46,1.44-9.17-.46-11.24-4.22-2.44-4.43-1.83-8.7,1.73-12.01,2.74-2.56,6.65-3.15,10.07-1.54,3.82,1.81,5.99,5.17,5.47,9.36-.27,2.15.35,3.48,1.82,4.93,8.51,8.41,16.92,16.92,25.38,25.38.5.5,1.06.93,2,1.75v-.02ZM95.29,21.66c3.95.06,7.98-3.88,8.08-7.92.1-4.21-3.52-7.84-7.89-7.9-4.56-.06-8.06,3.26-8.21,7.76-.14,4.19,3.65,7.99,8.02,8.06ZM136.83,32.14c-2.14-.1-3.74,1.26-3.86,3.29-.12,2.02,1.36,3.81,3.27,3.95,2.01.14,3.84-1.47,3.96-3.5.12-2.1-1.26-3.64-3.37-3.74h0ZM53.98,39.3c2-.04,3.5-1.56,3.5-3.52,0-2.06-1.75-3.74-3.81-3.68-1.96.06-3.37,1.58-3.36,3.63,0,2.01,1.66,3.62,3.67,3.57Z"/>
          <g>
            <path class="cls-1" d="M92.38,68.43v-4.07c-.02-11.7-.07-23.41-.03-35.11,0-1.48-.39-2.16-1.85-2.65-10.11-3.42-11.61-16.92-5.62-22.71,5.24-5.08,15.07-5.31,20.35.09,5.45,5.57,5.17,14.9-.7,19.87-1.38,1.17-3.13,1.9-4.61,2.97-.57.41-1.26,1.17-1.26,1.79-.15,12.75-.21,25.51-.27,38.26,0,.36.09.73.13,1.09.2.15.41.29.61.44.34-.56.58-1.2,1.02-1.65,7.8-7.99,15.62-15.95,23.43-23.92.23-.23.44-.51.71-.68,2.44-1.49,3.39-3.32,2.86-6.44-.78-4.58,3.8-9.25,8.71-9.59,5-.35,9.8,3.51,10.17,8.18.6,7.56-5.37,12.41-12.79,10.29-1.34-.38-2.12-.14-3.04.79-10.1,10.17-20.22,20.31-30.38,30.41-1.03,1.03-1.43,2.06-1.37,3.47.1,2.3.09,4.6.01,6.9-.08,2.34-1.1,3.33-3.24,3.32-1.99,0-2.8-.94-2.85-3.38-.04-1.91-.18-3.83,0-5.72.21-2.24-.65-3.75-2.23-5.3-9.84-9.68-19.59-19.45-29.32-29.25-1.13-1.14-1.99-1.57-3.66-1.03-4.46,1.44-9.17-.46-11.24-4.22-2.44-4.43-1.83-8.7,1.73-12.01,2.74-2.56,6.65-3.15,10.07-1.54,3.82,1.81,5.99,5.17,5.47,9.36-.27,2.15.35,3.48,1.82,4.93,8.51,8.41,16.92,16.92,25.38,25.38.5.5,1.06.93,2,1.75v-.02ZM95.29,21.66c3.95.06,7.98-3.88,8.08-7.92.1-4.21-3.52-7.84-7.89-7.9-4.56-.06-8.06,3.26-8.21,7.76-.14,4.19,3.65,7.99,8.02,8.06ZM136.83,32.14c-2.14-.1-3.74,1.26-3.86,3.29-.12,2.02,1.36,3.81,3.27,3.95,2.01.14,3.84-1.47,3.96-3.5.12-2.1-1.26-3.64-3.37-3.74h0ZM53.98,39.3c2-.04,3.5-1.56,3.5-3.52,0-2.06-1.75-3.74-3.81-3.68-1.96.06-3.37,1.58-3.36,3.63,0,2.01,1.66,3.62,3.67,3.57Z"/>
            <g class="cls-4">
              <g>
                <path class="cls-2" d="M95.29,21.66c-4.38-.07-8.16-3.87-8.02-8.06.15-4.51,3.66-7.82,8.21-7.76,4.36.06,7.99,3.69,7.89,7.9-.1,4.04-4.12,7.98-8.08,7.92Z"/>
                <path class="cls-2" d="M136.83,32.14c2.11.1,3.49,1.64,3.37,3.74-.12,2.03-1.95,3.64-3.96,3.5-1.91-.14-3.39-1.93-3.27-3.95.12-2.03,1.72-3.4,3.86-3.29h0Z"/>
                <path class="cls-2" d="M53.98,39.3c-2.01.04-3.66-1.57-3.67-3.57,0-2.04,1.4-3.57,3.36-3.63,2.06-.06,3.81,1.63,3.81,3.68s-1.5,3.47-3.5,3.52Z"/>
              </g>
            </g>
          </g>
        </g>
        <g>
          <path class="cls-2" d="M85.46,156.55c-.96-.83-1.51-1.24-1.99-1.72-10.87-10.7-21.73-21.4-32.59-32.1-2.11-2.08-4.15-4.22-6.34-6.21-.64-.58-1.68-1.01-2.54-1.03-4.86-.11-9.73-.01-14.59-.12-1.51-.04-2.13.49-2.67,1.87-2.24,5.69-7.28,8.75-13.19,8.17-5.72-.56-10.1-4.62-11.29-10.47-1.35-6.65,2.58-13.2,9.03-15.06,6.58-1.9,13.26,1.49,15.52,8,.44,1.27,1.09,1.52,2.29,1.51,5.65-.06,11.31.02,16.96-.07,1.59-.03,2.71.48,3.8,1.58,12.09,12.07,24.24,24.1,36.31,36.2.73.73,1.14,2,1.25,3.06.2,1.93.06,3.89.06,6.4h-.02ZM12.85,105.21c-3.97-.03-7.28,3.25-7.28,7.21s3.17,7.54,6.98,7.61c4.02.07,7.49-3.42,7.5-7.53,0-4.04-3.18-7.26-7.2-7.29Z"/>
          <g>
            <path class="cls-1" d="M85.46,156.55c-.96-.83-1.51-1.24-1.99-1.72-10.87-10.7-21.73-21.4-32.59-32.1-2.11-2.08-4.15-4.22-6.34-6.21-.64-.58-1.68-1.01-2.54-1.03-4.86-.11-9.73-.01-14.59-.12-1.51-.04-2.13.49-2.67,1.87-2.24,5.69-7.28,8.75-13.19,8.17-5.72-.56-10.1-4.62-11.29-10.47-1.35-6.65,2.58-13.2,9.03-15.06,6.58-1.9,13.26,1.49,15.52,8,.44,1.27,1.09,1.52,2.29,1.51,5.65-.06,11.31.02,16.96-.07,1.59-.03,2.71.48,3.8,1.58,12.09,12.07,24.24,24.1,36.31,36.2.73.73,1.14,2,1.25,3.06.2,1.93.06,3.89.06,6.4h-.02ZM12.85,105.21c-3.97-.03-7.28,3.25-7.28,7.21s3.17,7.54,6.98,7.61c4.02.07,7.49-3.42,7.5-7.53,0-4.04-3.18-7.26-7.2-7.29Z"/>
            <g class="cls-3">
              <path class="cls-2" d="M12.85,105.21c4.02.03,7.21,3.25,7.2,7.29,0,4.11-3.47,7.6-7.5,7.53-3.81-.06-6.98-3.52-6.98-7.61s3.3-7.24,7.28-7.21Z"/>
            </g>
          </g>
        </g>
        <g>
          <path class="cls-2" d="M105.41,155.8c0-2.35-.12-4.72.06-7.05.06-.78.75-1.63,1.36-2.24,7.23-7.18,14.51-14.31,21.74-21.47,4.81-4.76,9.53-9.61,14.4-14.3.79-.76,2.14-1.29,3.25-1.32,5.65-.13,11.31-.09,16.96-.03,1.23.01,1.81-.35,2.26-1.56,2.52-6.8,9.85-10.13,16.52-7.63,6.79,2.54,9.99,10.04,7.35,17.26-2.4,6.56-9.56,9.91-16.26,7.44-3.76-1.39-6.39-4.13-7.73-7.92-.43-1.22-1.01-1.56-2.25-1.55-4.86.07-9.73-.04-14.59.07-.98.02-2.19.52-2.88,1.2-12.58,12.41-25.09,24.89-37.6,37.36-.68.68-1.22,1.51-1.83,2.27-.25-.17-.5-.35-.76-.52h0ZM177.56,105.19c-4.01-.04-7.41,3.23-7.4,7.14,0,4.25,3.14,7.61,7.12,7.64,3.97.03,7.32-3.23,7.39-7.19.08-4.28-2.99-7.55-7.1-7.59h0Z"/>
          <g>
            <path class="cls-1" d="M105.41,155.8c0-2.35-.12-4.72.06-7.05.06-.78.75-1.63,1.36-2.24,7.23-7.18,14.51-14.31,21.74-21.47,4.81-4.76,9.53-9.61,14.4-14.3.79-.76,2.14-1.29,3.25-1.32,5.65-.13,11.31-.09,16.96-.03,1.23.01,1.81-.35,2.26-1.56,2.52-6.8,9.85-10.13,16.52-7.63,6.79,2.54,9.99,10.04,7.35,17.26-2.4,6.56-9.56,9.91-16.26,7.44-3.76-1.39-6.39-4.13-7.73-7.92-.43-1.22-1.01-1.56-2.25-1.55-4.86.07-9.73-.04-14.59.07-.98.02-2.19.52-2.88,1.2-12.58,12.41-25.09,24.89-37.6,37.36-.68.68-1.22,1.51-1.83,2.27-.25-.17-.5-.35-.76-.52h0ZM177.56,105.19c-4.01-.04-7.41,3.23-7.4,7.14,0,4.25,3.14,7.61,7.12,7.64,3.97.03,7.32-3.23,7.39-7.19.08-4.28-2.99-7.55-7.1-7.59h0Z"/>
            <g class="cls-7">
              <path class="cls-2" d="M177.56,105.19c4.11.04,7.18,3.31,7.1,7.59-.07,3.97-3.41,7.22-7.39,7.19s-7.11-3.39-7.12-7.64c0-3.91,3.39-7.18,7.4-7.14h0Z"/>
            </g>
          </g>
        </g>
        <g>
          <path class="cls-2" d="M125.03,153.32c-4.39,4.28-8.73,8.47-12.99,12.74-.42.42-.51,1.32-.51,1.99-.03,9.59-.02,19.18-.02,28.77,0,.72.05,1.45-.03,2.17-.21,1.99-1.57,3.19-3.4,3.06-1.72-.12-2.63-1.17-2.64-3.25-.04-7.56-.03-15.11-.04-22.67,0-3.55-.07-7.1-.03-10.64,0-.73.17-1.65.63-2.14,5.97-6.38,12-12.69,18.22-19.25,6.82,6.63,12.95,12.6,19.04,18.52,1.17-.74,2.04-1.46,3.04-1.91,3.52-1.59,7.26-.87,9.99,1.83,2.8,2.77,3.68,6.96,2.21,10.55-1.45,3.56-4.54,5.57-8.49,5.53-5.79-.06-9.23-3.42-9.53-9.22-.03-.59-.26-1.32-.66-1.72-4.8-4.77-9.65-9.48-14.49-14.2-.13-.13-.33-.18-.3-.17h0ZM150.19,165.68c-2.13,0-3.84,1.56-3.89,3.58-.06,2.31,1.59,4.13,3.77,4.16,2.05.03,3.88-1.76,3.94-3.84.06-2.11-1.68-3.89-3.82-3.9h0Z"/>
          <g>
            <path class="cls-1" d="M125.03,153.32c-4.39,4.28-8.73,8.47-12.99,12.74-.42.42-.51,1.32-.51,1.99-.03,9.59-.02,19.18-.02,28.77,0,.72.05,1.45-.03,2.17-.21,1.99-1.57,3.19-3.4,3.06-1.72-.12-2.63-1.17-2.64-3.25-.04-7.56-.03-15.11-.04-22.67,0-3.55-.07-7.1-.03-10.64,0-.73.17-1.65.63-2.14,5.97-6.38,12-12.69,18.22-19.25,6.82,6.63,12.95,12.6,19.04,18.52,1.17-.74,2.04-1.46,3.04-1.91,3.52-1.59,7.26-.87,9.99,1.83,2.8,2.77,3.68,6.96,2.21,10.55-1.45,3.56-4.54,5.57-8.49,5.53-5.79-.06-9.23-3.42-9.53-9.22-.03-.59-.26-1.32-.66-1.72-4.8-4.77-9.65-9.48-14.49-14.2-.13-.13-.33-.18-.3-.17h0ZM150.19,165.68c-2.13,0-3.84,1.56-3.89,3.58-.06,2.31,1.59,4.13,3.77,4.16,2.05.03,3.88-1.76,3.94-3.84.06-2.11-1.68-3.89-3.82-3.9h0Z"/>
            <g class="cls-5">
              <path class="cls-2" d="M150.19,165.68c2.14,0,3.88,1.79,3.82,3.9-.06,2.08-1.89,3.87-3.94,3.84-2.18-.03-3.83-1.84-3.77-4.16.05-2.02,1.76-3.6,3.89-3.58h0Z"/>
            </g>
          </g>
        </g>
        <g>
          <path class="cls-2" d="M66.29,153.39c-5.38,5.13-10.37,9.87-15.31,14.66-.4.39-.52,1.16-.62,1.78-.95,5.8-5.08,9.24-10.66,8.83-4.46-.33-8.14-4.13-8.43-8.69-.28-4.52,2.93-8.88,7.25-9.74,3.23-.65,6.14-.02,8.57,2.62,1.78-1.72,3.47-3.34,5.15-4.97,4.01-3.89,8.03-7.76,12-11.69.98-.97,1.7-1.16,2.75-.09,5.69,5.74,11.46,11.41,17.12,17.18.6.61,1.01,1.7,1.02,2.57.08,10.91.08,21.83.07,32.74,0,2.39-.98,3.4-3.09,3.37-1.85-.03-2.7-1.07-2.7-3.33-.01-9.86-.05-19.73,0-29.59,0-1.49-.4-2.57-1.47-3.64-4.07-4.08-8.05-8.26-11.67-12.01h.02ZM44.38,169.42c.03-2.1-1.54-3.69-3.69-3.75-2.08-.06-3.67,1.54-3.69,3.73-.03,2.29,1.38,3.93,3.42,3.98,2.23.06,3.93-1.63,3.96-3.96h0Z"/>
          <g>
            <path class="cls-1" d="M66.29,153.39c-5.38,5.13-10.37,9.87-15.31,14.66-.4.39-.52,1.16-.62,1.78-.95,5.8-5.08,9.24-10.66,8.83-4.46-.33-8.14-4.13-8.43-8.69-.28-4.52,2.93-8.88,7.25-9.74,3.23-.65,6.14-.02,8.57,2.62,1.78-1.72,3.47-3.34,5.15-4.97,4.01-3.89,8.03-7.76,12-11.69.98-.97,1.7-1.16,2.75-.09,5.69,5.74,11.46,11.41,17.12,17.18.6.61,1.01,1.7,1.02,2.57.08,10.91.08,21.83.07,32.74,0,2.39-.98,3.4-3.09,3.37-1.85-.03-2.7-1.07-2.7-3.33-.01-9.86-.05-19.73,0-29.59,0-1.49-.4-2.57-1.47-3.64-4.07-4.08-8.05-8.26-11.67-12.01h.02ZM44.38,169.42c.03-2.1-1.54-3.69-3.69-3.75-2.08-.06-3.67,1.54-3.69,3.73-.03,2.29,1.38,3.93,3.42,3.98,2.23.06,3.93-1.63,3.96-3.96h0Z"/>
            <g class="cls-8">
              <path class="cls-2" d="M44.38,169.42c-.03,2.32-1.72,4.01-3.96,3.96-2.04-.05-3.45-1.69-3.42-3.98.03-2.18,1.61-3.78,3.69-3.73,2.15.06,3.72,1.65,3.69,3.75h0Z"/>
            </g>
          </g>
        </g>
      </g>
    </g>
  </g>
</svg>